<svg width="192" height="52" viewBox="0 0 192 52" fill="none" xmlns="http://www.w3.org/2000/svg">
<g filter="url(#filter0_ddd_92_5759)">
<rect x="5" y="4" width="182" height="42" rx="21" fill="#2196F3" shape-rendering="crispEdges"/>
<path d="M27 21C25.5 21 25.5 23 27 23L29.0005 23C29.5528 23 30 23.4445 30 23.9968V33.5C30 35 32 35 32 33.5C32 32 32 29 33 29C34 29 34 32 34 33.5C34 35 36 35 36 33.5V24C36 23.4477 36.4477 23 37 23H39C40.5 23 40.5 21 39 21H27Z" fill="white" stroke="white" stroke-linecap="round"/>
<path d="M35 17.5C35 18.6046 34.1046 19.5 33 19.5C31.8954 19.5 31 18.6046 31 17.5C31 16.3954 31.8954 15.5 33 15.5C34.1046 15.5 35 16.3954 35 17.5Z" stroke="white"/>
<path d="M54.575 30V19.5H58.67C59.59 19.5 60.375 19.645 61.025 19.935C61.675 20.225 62.175 20.645 62.525 21.195C62.875 21.745 63.05 22.4 63.05 23.16C63.05 23.92 62.875 24.575 62.525 25.125C62.175 25.665 61.675 26.08 61.025 26.37C60.375 26.66 59.59 26.805 58.67 26.805H55.4L56.075 26.115V30H54.575ZM61.595 30L58.925 26.19H60.53L63.23 30H61.595ZM56.075 26.265L55.4 25.53H58.625C59.585 25.53 60.31 25.325 60.8 24.915C61.3 24.495 61.55 23.91 61.55 23.16C61.55 22.41 61.3 21.83 60.8 21.42C60.31 21.01 59.585 20.805 58.625 20.805H55.4L56.075 20.055V26.265ZM64.3434 30L69.0984 19.5H70.5834L75.3534 30H73.7784L69.5334 20.34H70.1334L65.8884 30H64.3434ZM66.3684 27.375L66.7734 26.175H72.6834L73.1184 27.375H66.3684ZM77.3798 30V19.5H81.8048C82.9248 19.5 83.9098 19.72 84.7598 20.16C85.6198 20.6 86.2848 21.215 86.7548 22.005C87.2348 22.795 87.4748 23.71 87.4748 24.75C87.4748 25.79 87.2348 26.705 86.7548 27.495C86.2848 28.285 85.6198 28.9 84.7598 29.34C83.9098 29.78 82.9248 30 81.8048 30H77.3798ZM78.8798 28.695H81.7148C82.5848 28.695 83.3348 28.53 83.9648 28.2C84.6048 27.87 85.0998 27.41 85.4498 26.82C85.7998 26.22 85.9748 25.53 85.9748 24.75C85.9748 23.96 85.7998 23.27 85.4498 22.68C85.0998 22.09 84.6048 21.63 83.9648 21.3C83.3348 20.97 82.5848 20.805 81.7148 20.805H78.8798V28.695ZM90.2323 30V19.5H91.7323V30H90.2323ZM100.076 30.12C99.2759 30.12 98.5309 29.985 97.8409 29.715C97.1609 29.445 96.5709 29.07 96.0709 28.59C95.5709 28.1 95.1809 27.53 94.9009 26.88C94.6209 26.23 94.4809 25.52 94.4809 24.75C94.4809 23.98 94.6209 23.27 94.9009 22.62C95.1809 21.97 95.5709 21.405 96.0709 20.925C96.5709 20.435 97.1609 20.055 97.8409 19.785C98.5209 19.515 99.2659 19.38 100.076 19.38C100.876 19.38 101.611 19.515 102.281 19.785C102.961 20.045 103.551 20.42 104.051 20.91C104.561 21.39 104.951 21.955 105.221 22.605C105.501 23.255 105.641 23.97 105.641 24.75C105.641 25.53 105.501 26.245 105.221 26.895C104.951 27.545 104.561 28.115 104.051 28.605C103.551 29.085 102.961 29.46 102.281 29.73C101.611 29.99 100.876 30.12 100.076 30.12ZM100.076 28.785C100.656 28.785 101.191 28.685 101.681 28.485C102.181 28.285 102.611 28.005 102.971 27.645C103.341 27.275 103.626 26.845 103.826 26.355C104.036 25.865 104.141 25.33 104.141 24.75C104.141 24.17 104.036 23.635 103.826 23.145C103.626 22.655 103.341 22.23 102.971 21.87C102.611 21.5 102.181 21.215 101.681 21.015C101.191 20.815 100.656 20.715 100.076 20.715C99.4859 20.715 98.9409 20.815 98.4409 21.015C97.9509 21.215 97.5209 21.5 97.1509 21.87C96.7809 22.23 96.4909 22.655 96.2809 23.145C96.0809 23.635 95.9809 24.17 95.9809 24.75C95.9809 25.33 96.0809 25.865 96.2809 26.355C96.4909 26.845 96.7809 27.275 97.1509 27.645C97.5209 28.005 97.9509 28.285 98.4409 28.485C98.9409 28.685 99.4859 28.785 100.076 28.785ZM108.394 30V19.5H109.894V28.695H115.579V30H108.394ZM122.309 30.12C121.509 30.12 120.764 29.985 120.074 29.715C119.394 29.445 118.804 29.07 118.304 28.59C117.804 28.1 117.414 27.53 117.134 26.88C116.854 26.23 116.714 25.52 116.714 24.75C116.714 23.98 116.854 23.27 117.134 22.62C117.414 21.97 117.804 21.405 118.304 20.925C118.804 20.435 119.394 20.055 120.074 19.785C120.754 19.515 121.499 19.38 122.309 19.38C123.109 19.38 123.844 19.515 124.514 19.785C125.194 20.045 125.784 20.42 126.284 20.91C126.794 21.39 127.184 21.955 127.454 22.605C127.734 23.255 127.874 23.97 127.874 24.75C127.874 25.53 127.734 26.245 127.454 26.895C127.184 27.545 126.794 28.115 126.284 28.605C125.784 29.085 125.194 29.46 124.514 29.73C123.844 29.99 123.109 30.12 122.309 30.12ZM122.309 28.785C122.889 28.785 123.424 28.685 123.914 28.485C124.414 28.285 124.844 28.005 125.204 27.645C125.574 27.275 125.859 26.845 126.059 26.355C126.269 25.865 126.374 25.33 126.374 24.75C126.374 24.17 126.269 23.635 126.059 23.145C125.859 22.655 125.574 22.23 125.204 21.87C124.844 21.5 124.414 21.215 123.914 21.015C123.424 20.815 122.889 20.715 122.309 20.715C121.719 20.715 121.174 20.815 120.674 21.015C120.184 21.215 119.754 21.5 119.384 21.87C119.014 22.23 118.724 22.655 118.514 23.145C118.314 23.635 118.214 24.17 118.214 24.75C118.214 25.33 118.314 25.865 118.514 26.355C118.724 26.845 119.014 27.275 119.384 27.645C119.754 28.005 120.184 28.285 120.674 28.485C121.174 28.685 121.719 28.785 122.309 28.785ZM135.367 30.12C134.557 30.12 133.812 29.99 133.132 29.73C132.452 29.46 131.862 29.085 131.362 28.605C130.862 28.115 130.472 27.545 130.192 26.895C129.912 26.245 129.772 25.53 129.772 24.75C129.772 23.97 129.912 23.255 130.192 22.605C130.472 21.955 130.862 21.39 131.362 20.91C131.872 20.42 132.467 20.045 133.147 19.785C133.827 19.515 134.577 19.38 135.397 19.38C136.227 19.38 136.987 19.515 137.677 19.785C138.367 20.055 138.952 20.46 139.432 21L138.502 21.93C138.072 21.51 137.602 21.205 137.092 21.015C136.592 20.815 136.047 20.715 135.457 20.715C134.857 20.715 134.297 20.815 133.777 21.015C133.267 21.215 132.822 21.495 132.442 21.855C132.072 22.215 131.782 22.645 131.572 23.145C131.372 23.635 131.272 24.17 131.272 24.75C131.272 25.32 131.372 25.855 131.572 26.355C131.782 26.845 132.072 27.275 132.442 27.645C132.822 28.005 133.267 28.285 133.777 28.485C134.287 28.685 134.842 28.785 135.442 28.785C136.002 28.785 136.537 28.7 137.047 28.53C137.567 28.35 138.047 28.055 138.487 27.645L139.342 28.785C138.822 29.225 138.212 29.56 137.512 29.79C136.822 30.01 136.107 30.12 135.367 30.12ZM137.902 28.59V24.69H139.342V28.785L137.902 28.59ZM142.674 30V19.5H144.174V30H142.674ZM150.837 30.12C150.037 30.12 149.272 30 148.542 29.76C147.812 29.51 147.237 29.19 146.817 28.8L147.372 27.63C147.772 27.98 148.282 28.27 148.902 28.5C149.522 28.73 150.167 28.845 150.837 28.845C151.447 28.845 151.942 28.775 152.322 28.635C152.702 28.495 152.982 28.305 153.162 28.065C153.342 27.815 153.432 27.535 153.432 27.225C153.432 26.865 153.312 26.575 153.072 26.355C152.842 26.135 152.537 25.96 152.157 25.83C151.787 25.69 151.377 25.57 150.927 25.47C150.477 25.37 150.022 25.255 149.562 25.125C149.112 24.985 148.697 24.81 148.317 24.6C147.947 24.39 147.647 24.11 147.417 23.76C147.187 23.4 147.072 22.94 147.072 22.38C147.072 21.84 147.212 21.345 147.492 20.895C147.782 20.435 148.222 20.07 148.812 19.8C149.412 19.52 150.172 19.38 151.092 19.38C151.702 19.38 152.307 19.46 152.907 19.62C153.507 19.78 154.027 20.01 154.467 20.31L153.972 21.51C153.522 21.21 153.047 20.995 152.547 20.865C152.047 20.725 151.562 20.655 151.092 20.655C150.502 20.655 150.017 20.73 149.637 20.88C149.257 21.03 148.977 21.23 148.797 21.48C148.627 21.73 148.542 22.01 148.542 22.32C148.542 22.69 148.657 22.985 148.887 23.205C149.127 23.425 149.432 23.6 149.802 23.73C150.182 23.86 150.597 23.98 151.047 24.09C151.497 24.19 151.947 24.305 152.397 24.435C152.857 24.565 153.272 24.735 153.642 24.945C154.022 25.155 154.327 25.435 154.558 25.785C154.788 26.135 154.903 26.585 154.903 27.135C154.903 27.665 154.757 28.16 154.467 28.62C154.177 29.07 153.727 29.435 153.117 29.715C152.517 29.985 151.757 30.12 150.837 30.12ZM159.492 30V20.805H155.892V19.5H164.577V20.805H160.977V30H159.492Z" fill="white"/>
</g>
<defs>
<filter id="filter0_ddd_92_5759" x="0" y="0" width="192" height="52" filterUnits="userSpaceOnUse" color-interpolation-filters="sRGB">
<feFlood flood-opacity="0" result="BackgroundImageFix"/>
<feColorMatrix in="SourceAlpha" type="matrix" values="0 0 0 0 0 0 0 0 0 0 0 0 0 0 0 0 0 0 127 0" result="hardAlpha"/>
<feMorphology radius="2" operator="erode" in="SourceAlpha" result="effect1_dropShadow_92_5759"/>
<feOffset dy="3"/>
<feGaussianBlur stdDeviation="0.5"/>
<feComposite in2="hardAlpha" operator="out"/>
<feColorMatrix type="matrix" values="0 0 0 0 0 0 0 0 0 0 0 0 0 0 0 0 0 0 0.2 0"/>
<feBlend mode="normal" in2="BackgroundImageFix" result="effect1_dropShadow_92_5759"/>
<feColorMatrix in="SourceAlpha" type="matrix" values="0 0 0 0 0 0 0 0 0 0 0 0 0 0 0 0 0 0 127 0" result="hardAlpha"/>
<feOffset dy="2"/>
<feGaussianBlur stdDeviation="1"/>
<feComposite in2="hardAlpha" operator="out"/>
<feColorMatrix type="matrix" values="0 0 0 0 0 0 0 0 0 0 0 0 0 0 0 0 0 0 0.14 0"/>
<feBlend mode="normal" in2="effect1_dropShadow_92_5759" result="effect2_dropShadow_92_5759"/>
<feColorMatrix in="SourceAlpha" type="matrix" values="0 0 0 0 0 0 0 0 0 0 0 0 0 0 0 0 0 0 127 0" result="hardAlpha"/>
<feOffset dy="1"/>
<feGaussianBlur stdDeviation="2.5"/>
<feComposite in2="hardAlpha" operator="out"/>
<feColorMatrix type="matrix" values="0 0 0 0 0 0 0 0 0 0 0 0 0 0 0 0 0 0 0.12 0"/>
<feBlend mode="normal" in2="effect2_dropShadow_92_5759" result="effect3_dropShadow_92_5759"/>
<feBlend mode="normal" in="SourceGraphic" in2="effect3_dropShadow_92_5759" result="shape"/>
</filter>
</defs>
</svg>
