<svg width="211" height="52" viewBox="0 0 211 52" fill="none" xmlns="http://www.w3.org/2000/svg">
<g filter="url(#filter0_ddd_92_5763)">
<rect x="5" y="4" width="201" height="42" rx="21" fill="#2196F3"/>
<path d="M33 17.5C33 17.5 33 20.2663 33 23M33 23C31.5 23 31.5 25 31 26M33 23C34.5 23 34.5 25 35 26" stroke="white" stroke-linecap="round"/>
<path d="M30.9995 29.9999C32.4064 27.6552 30.273 27.0087 30.4354 22.0447C30.4568 21.3895 30.2175 20.6861 29.5924 20.4885C27.203 19.7332 24.6036 23.2574 24.6753 28.1799C24.7001 29.8811 26.1276 31.2372 27.8289 31.237C29.1966 31.2368 30.4189 30.9676 30.9995 29.9999Z" stroke="white" stroke-linecap="round"/>
<path d="M35.0005 29.9999C33.5936 27.6552 35.727 27.0087 35.5646 22.0447C35.5432 21.3895 35.7825 20.6861 36.4076 20.4885C38.797 19.7332 41.3964 23.2574 41.3247 28.1799C41.2999 29.8811 39.8724 31.2372 38.1711 31.237C36.8034 31.2368 35.5811 30.9676 35.0005 29.9999Z" stroke="white" stroke-linecap="round"/>
<path d="M54.575 30V19.5H58.67C59.59 19.5 60.375 19.645 61.025 19.935C61.675 20.225 62.175 20.645 62.525 21.195C62.875 21.745 63.05 22.4 63.05 23.16C63.05 23.92 62.875 24.575 62.525 25.125C62.175 25.665 61.675 26.085 61.025 26.385C60.375 26.675 59.59 26.82 58.67 26.82H55.4L56.075 26.115V30H54.575ZM56.075 26.265L55.4 25.515H58.625C59.585 25.515 60.31 25.31 60.8 24.9C61.3 24.49 61.55 23.91 61.55 23.16C61.55 22.41 61.3 21.83 60.8 21.42C60.31 21.01 59.585 20.805 58.625 20.805H55.4L56.075 20.055V26.265ZM70.093 30.12C68.713 30.12 67.628 29.725 66.838 28.935C66.048 28.145 65.653 26.99 65.653 25.47V19.5H67.153V25.41C67.153 26.58 67.408 27.435 67.918 27.975C68.438 28.515 69.168 28.785 70.108 28.785C71.058 28.785 71.788 28.515 72.298 27.975C72.818 27.435 73.078 26.58 73.078 25.41V19.5H74.533V25.47C74.533 26.99 74.138 28.145 73.348 28.935C72.568 29.725 71.483 30.12 70.093 30.12ZM78.0682 30V19.5H79.5682V28.695H85.2532V30H78.0682ZM87.4345 30V19.5H88.6645L93.3745 27.435H92.7145L97.3645 19.5H98.5945L98.6095 30H97.1695L97.1545 21.765H97.4995L93.3595 28.725H92.6695L88.4995 21.765H88.8745V30H87.4345ZM106.961 30.12C106.161 30.12 105.416 29.985 104.726 29.715C104.046 29.445 103.456 29.07 102.956 28.59C102.456 28.1 102.066 27.53 101.786 26.88C101.506 26.23 101.366 25.52 101.366 24.75C101.366 23.98 101.506 23.27 101.786 22.62C102.066 21.97 102.456 21.405 102.956 20.925C103.456 20.435 104.046 20.055 104.726 19.785C105.406 19.515 106.151 19.38 106.961 19.38C107.761 19.38 108.496 19.515 109.166 19.785C109.846 20.045 110.436 20.42 110.936 20.91C111.446 21.39 111.836 21.955 112.106 22.605C112.386 23.255 112.526 23.97 112.526 24.75C112.526 25.53 112.386 26.245 112.106 26.895C111.836 27.545 111.446 28.115 110.936 28.605C110.436 29.085 109.846 29.46 109.166 29.73C108.496 29.99 107.761 30.12 106.961 30.12ZM106.961 28.785C107.541 28.785 108.076 28.685 108.566 28.485C109.066 28.285 109.496 28.005 109.856 27.645C110.226 27.275 110.511 26.845 110.711 26.355C110.921 25.865 111.026 25.33 111.026 24.75C111.026 24.17 110.921 23.635 110.711 23.145C110.511 22.655 110.226 22.23 109.856 21.87C109.496 21.5 109.066 21.215 108.566 21.015C108.076 20.815 107.541 20.715 106.961 20.715C106.371 20.715 105.826 20.815 105.326 21.015C104.836 21.215 104.406 21.5 104.036 21.87C103.666 22.23 103.376 22.655 103.166 23.145C102.966 23.635 102.866 24.17 102.866 24.75C102.866 25.33 102.966 25.865 103.166 26.355C103.376 26.845 103.666 27.275 104.036 27.645C104.406 28.005 104.836 28.285 105.326 28.485C105.826 28.685 106.371 28.785 106.961 28.785ZM115.278 30V19.5H116.508L123.453 28.125H122.808V19.5H124.308V30H123.078L116.133 21.375H116.778V30H115.278ZM132.651 30.12C131.851 30.12 131.106 29.985 130.416 29.715C129.736 29.445 129.146 29.07 128.646 28.59C128.146 28.1 127.756 27.53 127.476 26.88C127.196 26.23 127.056 25.52 127.056 24.75C127.056 23.98 127.196 23.27 127.476 22.62C127.756 21.97 128.146 21.405 128.646 20.925C129.146 20.435 129.736 20.055 130.416 19.785C131.096 19.515 131.841 19.38 132.651 19.38C133.451 19.38 134.186 19.515 134.856 19.785C135.536 20.045 136.126 20.42 136.626 20.91C137.136 21.39 137.526 21.955 137.796 22.605C138.076 23.255 138.216 23.97 138.216 24.75C138.216 25.53 138.076 26.245 137.796 26.895C137.526 27.545 137.136 28.115 136.626 28.605C136.126 29.085 135.536 29.46 134.856 29.73C134.186 29.99 133.451 30.12 132.651 30.12ZM132.651 28.785C133.231 28.785 133.766 28.685 134.256 28.485C134.756 28.285 135.186 28.005 135.546 27.645C135.916 27.275 136.201 26.845 136.401 26.355C136.611 25.865 136.716 25.33 136.716 24.75C136.716 24.17 136.611 23.635 136.401 23.145C136.201 22.655 135.916 22.23 135.546 21.87C135.186 21.5 134.756 21.215 134.256 21.015C133.766 20.815 133.231 20.715 132.651 20.715C132.061 20.715 131.516 20.815 131.016 21.015C130.526 21.215 130.096 21.5 129.726 21.87C129.356 22.23 129.066 22.655 128.856 23.145C128.656 23.635 128.556 24.17 128.556 24.75C128.556 25.33 128.656 25.865 128.856 26.355C129.066 26.845 129.356 27.275 129.726 27.645C130.096 28.005 130.526 28.285 131.016 28.485C131.516 28.685 132.061 28.785 132.651 28.785ZM140.969 30V19.5H142.469V28.695H148.154V30H140.969ZM154.885 30.12C154.085 30.12 153.34 29.985 152.65 29.715C151.97 29.445 151.38 29.07 150.88 28.59C150.38 28.1 149.99 27.53 149.71 26.88C149.43 26.23 149.29 25.52 149.29 24.75C149.29 23.98 149.43 23.27 149.71 22.62C149.99 21.97 150.38 21.405 150.88 20.925C151.38 20.435 151.97 20.055 152.65 19.785C153.33 19.515 154.075 19.38 154.885 19.38C155.685 19.38 156.42 19.515 157.09 19.785C157.77 20.045 158.36 20.42 158.86 20.91C159.37 21.39 159.76 21.955 160.03 22.605C160.31 23.255 160.45 23.97 160.45 24.75C160.45 25.53 160.31 26.245 160.03 26.895C159.76 27.545 159.37 28.115 158.86 28.605C158.36 29.085 157.77 29.46 157.09 29.73C156.42 29.99 155.685 30.12 154.885 30.12ZM154.885 28.785C155.465 28.785 156 28.685 156.49 28.485C156.99 28.285 157.42 28.005 157.78 27.645C158.15 27.275 158.435 26.845 158.635 26.355C158.845 25.865 158.95 25.33 158.95 24.75C158.95 24.17 158.845 23.635 158.635 23.145C158.435 22.655 158.15 22.23 157.78 21.87C157.42 21.5 156.99 21.215 156.49 21.015C156 20.815 155.465 20.715 154.885 20.715C154.295 20.715 153.75 20.815 153.25 21.015C152.76 21.215 152.33 21.5 151.96 21.87C151.59 22.23 151.3 22.655 151.09 23.145C150.89 23.635 150.79 24.17 150.79 24.75C150.79 25.33 150.89 25.865 151.09 26.355C151.3 26.845 151.59 27.275 151.96 27.645C152.33 28.005 152.76 28.285 153.25 28.485C153.75 28.685 154.295 28.785 154.885 28.785ZM167.942 30.12C167.132 30.12 166.387 29.99 165.707 29.73C165.027 29.46 164.437 29.085 163.937 28.605C163.437 28.115 163.047 27.545 162.767 26.895C162.487 26.245 162.347 25.53 162.347 24.75C162.347 23.97 162.487 23.255 162.767 22.605C163.047 21.955 163.437 21.39 163.937 20.91C164.447 20.42 165.042 20.045 165.722 19.785C166.402 19.515 167.152 19.38 167.972 19.38C168.802 19.38 169.562 19.515 170.252 19.785C170.942 20.055 171.527 20.46 172.007 21L171.077 21.93C170.647 21.51 170.177 21.205 169.667 21.015C169.167 20.815 168.622 20.715 168.032 20.715C167.432 20.715 166.872 20.815 166.352 21.015C165.842 21.215 165.397 21.495 165.017 21.855C164.647 22.215 164.357 22.645 164.147 23.145C163.947 23.635 163.847 24.17 163.847 24.75C163.847 25.32 163.947 25.855 164.147 26.355C164.357 26.845 164.647 27.275 165.017 27.645C165.397 28.005 165.842 28.285 166.352 28.485C166.862 28.685 167.417 28.785 168.017 28.785C168.577 28.785 169.112 28.7 169.622 28.53C170.142 28.35 170.622 28.055 171.062 27.645L171.917 28.785C171.397 29.225 170.787 29.56 170.087 29.79C169.397 30.01 168.682 30.12 167.942 30.12ZM170.477 28.59V24.69H171.917V28.785L170.477 28.59ZM177.784 30V25.98L178.129 26.91L173.614 19.5H175.219L179.014 25.755H178.144L181.954 19.5H183.439L178.939 26.91L179.269 25.98V30H177.784Z" fill="white"/>
</g>
<defs>
<filter id="filter0_ddd_92_5763" x="0" y="0" width="211" height="52" filterUnits="userSpaceOnUse" color-interpolation-filters="sRGB">
<feFlood flood-opacity="0" result="BackgroundImageFix"/>
<feColorMatrix in="SourceAlpha" type="matrix" values="0 0 0 0 0 0 0 0 0 0 0 0 0 0 0 0 0 0 127 0" result="hardAlpha"/>
<feMorphology radius="2" operator="erode" in="SourceAlpha" result="effect1_dropShadow_92_5763"/>
<feOffset dy="3"/>
<feGaussianBlur stdDeviation="0.5"/>
<feComposite in2="hardAlpha" operator="out"/>
<feColorMatrix type="matrix" values="0 0 0 0 0 0 0 0 0 0 0 0 0 0 0 0 0 0 0.2 0"/>
<feBlend mode="normal" in2="BackgroundImageFix" result="effect1_dropShadow_92_5763"/>
<feColorMatrix in="SourceAlpha" type="matrix" values="0 0 0 0 0 0 0 0 0 0 0 0 0 0 0 0 0 0 127 0" result="hardAlpha"/>
<feOffset dy="2"/>
<feGaussianBlur stdDeviation="1"/>
<feComposite in2="hardAlpha" operator="out"/>
<feColorMatrix type="matrix" values="0 0 0 0 0 0 0 0 0 0 0 0 0 0 0 0 0 0 0.14 0"/>
<feBlend mode="normal" in2="effect1_dropShadow_92_5763" result="effect2_dropShadow_92_5763"/>
<feColorMatrix in="SourceAlpha" type="matrix" values="0 0 0 0 0 0 0 0 0 0 0 0 0 0 0 0 0 0 127 0" result="hardAlpha"/>
<feOffset dy="1"/>
<feGaussianBlur stdDeviation="2.5"/>
<feComposite in2="hardAlpha" operator="out"/>
<feColorMatrix type="matrix" values="0 0 0 0 0 0 0 0 0 0 0 0 0 0 0 0 0 0 0.12 0"/>
<feBlend mode="normal" in2="effect2_dropShadow_92_5763" result="effect3_dropShadow_92_5763"/>
<feBlend mode="normal" in="SourceGraphic" in2="effect3_dropShadow_92_5763" result="shape"/>
</filter>
</defs>
</svg>
