<svg width="222" height="52" viewBox="0 0 222 52" fill="none" xmlns="http://www.w3.org/2000/svg">
<g filter="url(#filter0_ddd_92_5760)">
<rect x="5" y="4" width="212" height="42" rx="21" fill="#2196F3"/>
<path d="M32.0002 34.5V18C32.0002 17.3333 32.1002 16 30.5002 16C28.9229 16 28.5895 17.866 29.5002 18.6547M32.0002 34.5C30.2153 34.5 29.6251 32.9071 30.2296 31.8536M28.8642 17.4134C28.4108 17.3306 27.9421 17.3785 27.4995 17.5527C27.057 17.7269 26.6543 18.0222 26.327 18.4122C25.9998 18.8023 25.7582 19.2752 25.6236 19.7889C25.489 20.3027 25.4656 20.8416 25.5554 21.3578C25.6452 21.8739 25.8454 22.3515 26.1384 22.7482C26.4314 23.1448 26.8081 23.4483 27.2351 23.6318M27.2153 30.0344C27.0668 30.322 26.9929 30.6536 27.0002 31C27.0075 31.3463 27.0958 31.6967 27.2571 32.0201C27.4185 32.3434 27.648 32.6298 27.9253 32.8538C28.2026 33.0778 28.5192 33.2326 28.847 33.3043C29.1747 33.3761 29.5036 33.3627 29.8044 33.2652M26.1512 22.9772C25.8649 23.0096 25.5927 23.121 25.3586 23.3016C25.1246 23.4823 24.9359 23.7265 24.8094 24.0127C24.6828 24.2989 24.6223 24.6183 24.6331 24.9425C24.6439 25.2667 24.7257 25.5858 24.8714 25.8714C25.017 26.1571 25.2219 26.4005 25.468 26.5801C25.714 26.7598 25.9936 26.8701 26.282 26.9013M25.7325 26.842C25.4502 27.0354 25.2201 27.2954 25.0625 27.5992C24.9048 27.9029 24.8245 28.2409 24.8287 28.5832C24.8329 28.9256 24.9214 29.2617 25.0864 29.5618C25.2514 29.8619 25.4878 30.1168 25.7747 30.3038C26.0616 30.4909 26.39 30.6043 26.731 30.6341" stroke="white" stroke-linecap="round"/>
<path d="M28.6357 25.3097C28.9349 25.3209 29.2319 25.2475 29.5004 25.096C29.7689 24.9445 30.0006 24.7196 30.1749 24.4412C30.3493 24.1628 30.461 23.8395 30.5 23.4999C30.5391 23.1604 30.5044 22.815 30.3989 22.4945C30.2935 22.1739 30.1206 21.8881 29.8955 21.6622" stroke="white" stroke-linecap="round" stroke-linejoin="round"/>
<path d="M31.9563 27.9438C31.6447 27.9442 31.3449 28.0155 31.0835 28.1514C30.8221 28.2874 30.6072 28.4838 30.4577 28.7233C30.3083 28.9628 30.2289 29.2379 30.2267 29.5244" stroke="white" stroke-linecap="round" stroke-linejoin="round"/>
<path d="M27.5563 27.3705C27.7268 27.3685 27.8901 27.4101 28.0316 27.4916C28.1732 27.573 28.2888 27.6918 28.368 27.8373C28.4473 27.9829 28.4878 28.1507 28.486 28.3261" stroke="white" stroke-linecap="round" stroke-linejoin="round"/>
<path d="M28.5005 20C28.3776 19.9621 28.2462 19.9595 28.118 19.9925C27.9898 20.0255 27.8687 20.093 27.7654 20.1891C27.6621 20.2852 27.5798 20.4069 27.5259 20.5435C27.4719 20.68 27.4479 20.8271 27.4561 20.9718C27.4642 21.1165 27.5041 21.2543 27.5724 21.373" stroke="white" stroke-linecap="round" stroke-linejoin="round"/>
<path d="M34.0008 34.5V18C34.0008 17.3333 33.9008 16 35.5008 16C37.0606 16 37.4039 17.8248 36.5306 18.628M34.0008 34.5C35.7857 34.5 36.3759 32.9071 35.7714 31.8536M37.1368 17.4134C37.5901 17.3306 38.0589 17.3785 38.5014 17.5527C38.944 17.7269 39.3467 18.0222 39.6739 18.4122C40.0012 18.8023 40.2428 19.2752 40.3774 19.7889C40.512 20.3027 40.5354 20.8416 40.4456 21.3578C40.3558 21.8739 40.1556 22.3515 39.8626 22.7482C39.5696 23.1448 39.1929 23.4483 38.7659 23.6318M38.7858 30.0344C38.9342 30.322 39.0081 30.6536 39.0008 31C38.9935 31.3463 38.9053 31.6967 38.7439 32.0201C38.5825 32.3434 38.353 32.6298 38.0757 32.8538C37.7984 33.0778 37.4818 33.2326 37.1541 33.3043C36.8263 33.3761 36.4974 33.3627 36.1966 33.2652M39.8498 22.9772C40.1361 23.0096 40.4083 23.121 40.6423 23.3016C40.8764 23.4823 41.065 23.7265 41.1916 24.0127C41.3182 24.2989 41.3787 24.6183 41.3679 24.9425C41.3571 25.2667 41.2752 25.5858 41.1296 25.8714C40.984 26.1571 40.7791 26.4005 40.533 26.5801C40.2869 26.7598 40.0073 26.8701 39.719 26.9013M40.2685 26.842C40.5507 27.0354 40.7809 27.2954 40.9385 27.5992C41.0961 27.9029 41.1764 28.2409 41.1723 28.5832C41.1681 28.9256 41.0796 29.2617 40.9146 29.5618C40.7496 29.8619 40.5131 30.1168 40.2263 30.3038C39.9394 30.4909 39.6109 30.6043 39.27 30.6341" stroke="white" stroke-linecap="round"/>
<path d="M37.8884 25.0659C37.5953 25.1271 37.2902 25.1045 37.0001 25.0001C36.7101 24.8957 36.444 24.7128 36.2254 24.4675C36.0069 24.2222 35.8427 23.9222 35.7473 23.5939C35.6519 23.2657 35.6283 22.9194 35.6786 22.5857" stroke="white" stroke-linecap="round" stroke-linejoin="round"/>
<path d="M36.3949 29.7C36.7062 29.6868 37.0028 29.6031 37.2584 29.4565C37.5139 29.3099 37.7206 29.1047 37.86 28.8593C37.9995 28.6138 38.0674 28.3356 38.0578 28.0494" stroke="white" stroke-linecap="round" stroke-linejoin="round"/>
<path d="M35.8349 26.5734C35.7721 26.7319 35.7526 26.8993 35.778 27.0606C35.8034 27.222 35.873 27.3723 35.9806 27.4984C36.0882 27.6244 36.2305 27.7223 36.3949 27.7833" stroke="white" stroke-linecap="round" stroke-linejoin="round"/>
<path d="M37.6948 20.3543C37.8126 20.4059 37.9137 20.4898 37.9892 20.5986C38.0647 20.7073 38.1122 20.8376 38.1276 20.9779C38.143 21.1181 38.1257 21.264 38.0773 21.4026C38.029 21.5412 37.951 21.6682 37.8503 21.7724C37.7496 21.8767 37.6293 21.9549 37.5 22.0001" stroke="white" stroke-linecap="round" stroke-linejoin="round"/>
<path d="M54.575 30V19.5H55.805L62.75 28.125H62.105V19.5H63.605V30H62.375L55.43 21.375H56.075V30H54.575ZM68.5729 24.03H73.9729V25.305H68.5729V24.03ZM68.7079 28.695H74.8279V30H67.2079V19.5H74.6179V20.805H68.7079V28.695ZM82.0667 30.12C80.6867 30.12 79.6017 29.725 78.8117 28.935C78.0217 28.145 77.6267 26.99 77.6267 25.47V19.5H79.1267V25.41C79.1267 26.58 79.3817 27.435 79.8917 27.975C80.4117 28.515 81.1417 28.785 82.0817 28.785C83.0317 28.785 83.7617 28.515 84.2717 27.975C84.7917 27.435 85.0517 26.58 85.0517 25.41V19.5H86.5067V25.47C86.5067 26.99 86.1117 28.145 85.3217 28.935C84.5417 29.725 83.4567 30.12 82.0667 30.12ZM90.0419 30V19.5H94.1369C95.0569 19.5 95.8419 19.645 96.4919 19.935C97.1419 20.225 97.6419 20.645 97.9919 21.195C98.3419 21.745 98.5169 22.4 98.5169 23.16C98.5169 23.92 98.3419 24.575 97.9919 25.125C97.6419 25.665 97.1419 26.08 96.4919 26.37C95.8419 26.66 95.0569 26.805 94.1369 26.805H90.8669L91.5419 26.115V30H90.0419ZM97.0619 30L94.3919 26.19H95.9969L98.6969 30H97.0619ZM91.5419 26.265L90.8669 25.53H94.0919C95.0519 25.53 95.7769 25.325 96.2669 24.915C96.7669 24.495 97.0169 23.91 97.0169 23.16C97.0169 22.41 96.7669 21.83 96.2669 21.42C95.7769 21.01 95.0519 20.805 94.0919 20.805H90.8669L91.5419 20.055V26.265ZM106.14 30.12C105.34 30.12 104.595 29.985 103.905 29.715C103.225 29.445 102.635 29.07 102.135 28.59C101.635 28.1 101.245 27.53 100.965 26.88C100.685 26.23 100.545 25.52 100.545 24.75C100.545 23.98 100.685 23.27 100.965 22.62C101.245 21.97 101.635 21.405 102.135 20.925C102.635 20.435 103.225 20.055 103.905 19.785C104.585 19.515 105.33 19.38 106.14 19.38C106.94 19.38 107.675 19.515 108.345 19.785C109.025 20.045 109.615 20.42 110.115 20.91C110.625 21.39 111.015 21.955 111.285 22.605C111.565 23.255 111.705 23.97 111.705 24.75C111.705 25.53 111.565 26.245 111.285 26.895C111.015 27.545 110.625 28.115 110.115 28.605C109.615 29.085 109.025 29.46 108.345 29.73C107.675 29.99 106.94 30.12 106.14 30.12ZM106.14 28.785C106.72 28.785 107.255 28.685 107.745 28.485C108.245 28.285 108.675 28.005 109.035 27.645C109.405 27.275 109.69 26.845 109.89 26.355C110.1 25.865 110.205 25.33 110.205 24.75C110.205 24.17 110.1 23.635 109.89 23.145C109.69 22.655 109.405 22.23 109.035 21.87C108.675 21.5 108.245 21.215 107.745 21.015C107.255 20.815 106.72 20.715 106.14 20.715C105.55 20.715 105.005 20.815 104.505 21.015C104.015 21.215 103.585 21.5 103.215 21.87C102.845 22.23 102.555 22.655 102.345 23.145C102.145 23.635 102.045 24.17 102.045 24.75C102.045 25.33 102.145 25.865 102.345 26.355C102.555 26.845 102.845 27.275 103.215 27.645C103.585 28.005 104.015 28.285 104.505 28.485C105.005 28.685 105.55 28.785 106.14 28.785ZM117.518 30.12C116.718 30.12 115.953 30 115.223 29.76C114.493 29.51 113.918 29.19 113.498 28.8L114.053 27.63C114.453 27.98 114.963 28.27 115.583 28.5C116.203 28.73 116.848 28.845 117.518 28.845C118.128 28.845 118.623 28.775 119.003 28.635C119.383 28.495 119.663 28.305 119.843 28.065C120.023 27.815 120.113 27.535 120.113 27.225C120.113 26.865 119.993 26.575 119.753 26.355C119.523 26.135 119.218 25.96 118.838 25.83C118.468 25.69 118.058 25.57 117.608 25.47C117.158 25.37 116.703 25.255 116.243 25.125C115.793 24.985 115.378 24.81 114.998 24.6C114.628 24.39 114.328 24.11 114.098 23.76C113.868 23.4 113.753 22.94 113.753 22.38C113.753 21.84 113.893 21.345 114.173 20.895C114.463 20.435 114.903 20.07 115.493 19.8C116.093 19.52 116.853 19.38 117.773 19.38C118.383 19.38 118.988 19.46 119.588 19.62C120.188 19.78 120.708 20.01 121.148 20.31L120.653 21.51C120.203 21.21 119.728 20.995 119.228 20.865C118.728 20.725 118.243 20.655 117.773 20.655C117.183 20.655 116.698 20.73 116.318 20.88C115.938 21.03 115.658 21.23 115.478 21.48C115.308 21.73 115.223 22.01 115.223 22.32C115.223 22.69 115.338 22.985 115.568 23.205C115.808 23.425 116.113 23.6 116.483 23.73C116.863 23.86 117.278 23.98 117.728 24.09C118.178 24.19 118.628 24.305 119.078 24.435C119.538 24.565 119.953 24.735 120.323 24.945C120.703 25.155 121.008 25.435 121.238 25.785C121.468 26.135 121.583 26.585 121.583 27.135C121.583 27.665 121.438 28.16 121.148 28.62C120.858 29.07 120.408 29.435 119.798 29.715C119.198 29.985 118.438 30.12 117.518 30.12ZM128.584 30.12C127.204 30.12 126.119 29.725 125.329 28.935C124.539 28.145 124.144 26.99 124.144 25.47V19.5H125.644V25.41C125.644 26.58 125.899 27.435 126.409 27.975C126.929 28.515 127.659 28.785 128.599 28.785C129.549 28.785 130.279 28.515 130.789 27.975C131.309 27.435 131.569 26.58 131.569 25.41V19.5H133.024V25.47C133.024 26.99 132.629 28.145 131.839 28.935C131.059 29.725 129.974 30.12 128.584 30.12ZM136.56 30V19.5H140.655C141.575 19.5 142.36 19.645 143.01 19.935C143.66 20.225 144.16 20.645 144.51 21.195C144.86 21.745 145.035 22.4 145.035 23.16C145.035 23.92 144.86 24.575 144.51 25.125C144.16 25.665 143.66 26.08 143.01 26.37C142.36 26.66 141.575 26.805 140.655 26.805H137.385L138.06 26.115V30H136.56ZM143.58 30L140.91 26.19H142.515L145.215 30H143.58ZM138.06 26.265L137.385 25.53H140.61C141.57 25.53 142.295 25.325 142.785 24.915C143.285 24.495 143.535 23.91 143.535 23.16C143.535 22.41 143.285 21.83 142.785 21.42C142.295 21.01 141.57 20.805 140.61 20.805H137.385L138.06 20.055V26.265ZM152.658 30.12C151.848 30.12 151.103 29.99 150.423 29.73C149.743 29.46 149.153 29.085 148.653 28.605C148.153 28.115 147.763 27.545 147.483 26.895C147.203 26.245 147.063 25.53 147.063 24.75C147.063 23.97 147.203 23.255 147.483 22.605C147.763 21.955 148.153 21.39 148.653 20.91C149.163 20.42 149.758 20.045 150.438 19.785C151.118 19.515 151.868 19.38 152.688 19.38C153.518 19.38 154.278 19.515 154.968 19.785C155.658 20.055 156.243 20.46 156.723 21L155.793 21.93C155.363 21.51 154.893 21.205 154.383 21.015C153.883 20.815 153.338 20.715 152.748 20.715C152.148 20.715 151.588 20.815 151.068 21.015C150.558 21.215 150.113 21.495 149.733 21.855C149.363 22.215 149.073 22.645 148.863 23.145C148.663 23.635 148.563 24.17 148.563 24.75C148.563 25.32 148.663 25.855 148.863 26.355C149.073 26.845 149.363 27.275 149.733 27.645C150.113 28.005 150.558 28.285 151.068 28.485C151.578 28.685 152.133 28.785 152.733 28.785C153.293 28.785 153.828 28.7 154.338 28.53C154.858 28.35 155.338 28.055 155.778 27.645L156.633 28.785C156.113 29.225 155.503 29.56 154.803 29.79C154.113 30.01 153.398 30.12 152.658 30.12ZM155.193 28.59V24.69H156.633V28.785L155.193 28.59ZM161.33 24.03H166.73V25.305H161.33V24.03ZM161.465 28.695H167.585V30H159.965V19.5H167.375V20.805H161.465V28.695ZM175.199 30.12C174.399 30.12 173.654 29.985 172.964 29.715C172.284 29.445 171.694 29.07 171.194 28.59C170.694 28.1 170.304 27.53 170.024 26.88C169.744 26.23 169.604 25.52 169.604 24.75C169.604 23.98 169.744 23.27 170.024 22.62C170.304 21.97 170.694 21.405 171.194 20.925C171.694 20.435 172.284 20.055 172.964 19.785C173.644 19.515 174.389 19.38 175.199 19.38C175.999 19.38 176.734 19.515 177.404 19.785C178.084 20.045 178.674 20.42 179.174 20.91C179.684 21.39 180.074 21.955 180.344 22.605C180.624 23.255 180.764 23.97 180.764 24.75C180.764 25.53 180.624 26.245 180.344 26.895C180.074 27.545 179.684 28.115 179.174 28.605C178.674 29.085 178.084 29.46 177.404 29.73C176.734 29.99 175.999 30.12 175.199 30.12ZM175.199 28.785C175.779 28.785 176.314 28.685 176.804 28.485C177.304 28.285 177.734 28.005 178.094 27.645C178.464 27.275 178.749 26.845 178.949 26.355C179.159 25.865 179.264 25.33 179.264 24.75C179.264 24.17 179.159 23.635 178.949 23.145C178.749 22.655 178.464 22.23 178.094 21.87C177.734 21.5 177.304 21.215 176.804 21.015C176.314 20.815 175.779 20.715 175.199 20.715C174.609 20.715 174.064 20.815 173.564 21.015C173.074 21.215 172.644 21.5 172.274 21.87C171.904 22.23 171.614 22.655 171.404 23.145C171.204 23.635 171.104 24.17 171.104 24.75C171.104 25.33 171.204 25.865 171.404 26.355C171.614 26.845 171.904 27.275 172.274 27.645C172.644 28.005 173.074 28.285 173.564 28.485C174.064 28.685 174.609 28.785 175.199 28.785ZM183.517 30V19.5H184.747L191.692 28.125H191.047V19.5H192.547V30H191.317L184.372 21.375H185.017V30H183.517Z" fill="white"/>
</g>
<defs>
<filter id="filter0_ddd_92_5760" x="0" y="0" width="222" height="52" filterUnits="userSpaceOnUse" color-interpolation-filters="sRGB">
<feFlood flood-opacity="0" result="BackgroundImageFix"/>
<feColorMatrix in="SourceAlpha" type="matrix" values="0 0 0 0 0 0 0 0 0 0 0 0 0 0 0 0 0 0 127 0" result="hardAlpha"/>
<feMorphology radius="2" operator="erode" in="SourceAlpha" result="effect1_dropShadow_92_5760"/>
<feOffset dy="3"/>
<feGaussianBlur stdDeviation="0.5"/>
<feComposite in2="hardAlpha" operator="out"/>
<feColorMatrix type="matrix" values="0 0 0 0 0 0 0 0 0 0 0 0 0 0 0 0 0 0 0.2 0"/>
<feBlend mode="normal" in2="BackgroundImageFix" result="effect1_dropShadow_92_5760"/>
<feColorMatrix in="SourceAlpha" type="matrix" values="0 0 0 0 0 0 0 0 0 0 0 0 0 0 0 0 0 0 127 0" result="hardAlpha"/>
<feOffset dy="2"/>
<feGaussianBlur stdDeviation="1"/>
<feComposite in2="hardAlpha" operator="out"/>
<feColorMatrix type="matrix" values="0 0 0 0 0 0 0 0 0 0 0 0 0 0 0 0 0 0 0.14 0"/>
<feBlend mode="normal" in2="effect1_dropShadow_92_5760" result="effect2_dropShadow_92_5760"/>
<feColorMatrix in="SourceAlpha" type="matrix" values="0 0 0 0 0 0 0 0 0 0 0 0 0 0 0 0 0 0 127 0" result="hardAlpha"/>
<feOffset dy="1"/>
<feGaussianBlur stdDeviation="2.5"/>
<feComposite in2="hardAlpha" operator="out"/>
<feColorMatrix type="matrix" values="0 0 0 0 0 0 0 0 0 0 0 0 0 0 0 0 0 0 0.12 0"/>
<feBlend mode="normal" in2="effect2_dropShadow_92_5760" result="effect3_dropShadow_92_5760"/>
<feBlend mode="normal" in="SourceGraphic" in2="effect3_dropShadow_92_5760" result="shape"/>
</filter>
</defs>
</svg>
