<svg width="195" height="52" viewBox="0 0 195 52" fill="none" xmlns="http://www.w3.org/2000/svg">
<g filter="url(#filter0_ddd_92_5762)">
<rect x="5" y="4" width="185" height="42" rx="21" fill="#2196F3"/>
<path d="M26.5 23.5C26.5 22.1192 29.75 21 33 21C36.25 21 39.5 22.1192 39.5 23.5C39.5 24.9409 37.6545 24.0363 36.6227 23.559C36.5935 23.5455 36.5654 23.5823 36.5852 23.6077C38.5099 26.0668 38.9552 28.5121 36.017 29.9915C36.0068 29.9966 36 30.0054 36.0001 30.0168C36.0017 30.1235 36.0171 30.3001 36.0365 30.5231C36.1459 31.7777 36.3832 34.5 35 34.5C33.7175 34.5 33.8815 32.2525 33.9689 31.0551C33.9847 30.8388 33.998 30.6567 33.9998 30.5284C34 30.5118 33.9866 30.5 33.97 30.5H32.03C32.0134 30.5 32 30.5118 32.0002 30.5284C32.002 30.6567 32.0153 30.8388 32.0311 31.0551C32.1185 32.2525 32.2825 34.5 31 34.5C29.6168 34.5 29.8541 31.7777 29.9635 30.5231C29.9829 30.3001 29.9983 30.1235 29.9999 30.0168C30 30.0054 29.9932 29.9966 29.983 29.9915C27.0448 28.5121 27.4901 26.0668 29.4148 23.6077C29.4346 23.5823 29.4065 23.5455 29.3773 23.559C28.3455 24.0363 26.5 24.9409 26.5 23.5Z" fill="white" stroke="white" stroke-linecap="round"/>
<path d="M35 17.5C35 18.6046 34.1046 19.5 33 19.5C31.8954 19.5 31 18.6046 31 17.5C31 16.3954 31.8954 15.5 33 15.5C34.1046 15.5 35 16.3954 35 17.5Z" stroke="white"/>
<path d="M54.575 30V19.5H55.805L62.75 28.125H62.105V19.5H63.605V30H62.375L55.43 21.375H56.075V30H54.575ZM71.5579 30.12C70.1779 30.12 69.0929 29.725 68.3029 28.935C67.5129 28.145 67.1179 26.99 67.1179 25.47V19.5H68.6179V25.41C68.6179 26.58 68.8729 27.435 69.3829 27.975C69.9029 28.515 70.6329 28.785 71.5729 28.785C72.5229 28.785 73.2529 28.515 73.7629 27.975C74.2829 27.435 74.5429 26.58 74.5429 25.41V19.5H75.9979V25.47C75.9979 26.99 75.6029 28.145 74.8129 28.935C74.0329 29.725 72.9479 30.12 71.5579 30.12ZM81.4277 30V20.805H77.8277V19.5H86.5127V20.805H82.9127V30H81.4277ZM88.6064 30V19.5H92.7014C93.6214 19.5 94.4064 19.645 95.0564 19.935C95.7064 20.225 96.2064 20.645 96.5564 21.195C96.9064 21.745 97.0814 22.4 97.0814 23.16C97.0814 23.92 96.9064 24.575 96.5564 25.125C96.2064 25.665 95.7064 26.08 95.0564 26.37C94.4064 26.66 93.6214 26.805 92.7014 26.805H89.4314L90.1064 26.115V30H88.6064ZM95.6264 30L92.9564 26.19H94.5614L97.2614 30H95.6264ZM90.1064 26.265L89.4314 25.53H92.6564C93.6164 25.53 94.3414 25.325 94.8314 24.915C95.3314 24.495 95.5814 23.91 95.5814 23.16C95.5814 22.41 95.3314 21.83 94.8314 21.42C94.3414 21.01 93.6164 20.805 92.6564 20.805H89.4314L90.1064 20.055V26.265ZM99.9648 30V19.5H101.465V30H99.9648ZM107.153 30V20.805H103.553V19.5H112.238V20.805H108.638V30H107.153ZM114.332 30V19.5H115.832V30H114.332ZM124.176 30.12C123.376 30.12 122.631 29.985 121.941 29.715C121.261 29.445 120.671 29.07 120.171 28.59C119.671 28.1 119.281 27.53 119.001 26.88C118.721 26.23 118.581 25.52 118.581 24.75C118.581 23.98 118.721 23.27 119.001 22.62C119.281 21.97 119.671 21.405 120.171 20.925C120.671 20.435 121.261 20.055 121.941 19.785C122.621 19.515 123.366 19.38 124.176 19.38C124.976 19.38 125.711 19.515 126.381 19.785C127.061 20.045 127.651 20.42 128.151 20.91C128.661 21.39 129.051 21.955 129.321 22.605C129.601 23.255 129.741 23.97 129.741 24.75C129.741 25.53 129.601 26.245 129.321 26.895C129.051 27.545 128.661 28.115 128.151 28.605C127.651 29.085 127.061 29.46 126.381 29.73C125.711 29.99 124.976 30.12 124.176 30.12ZM124.176 28.785C124.756 28.785 125.291 28.685 125.781 28.485C126.281 28.285 126.711 28.005 127.071 27.645C127.441 27.275 127.726 26.845 127.926 26.355C128.136 25.865 128.241 25.33 128.241 24.75C128.241 24.17 128.136 23.635 127.926 23.145C127.726 22.655 127.441 22.23 127.071 21.87C126.711 21.5 126.281 21.215 125.781 21.015C125.291 20.815 124.756 20.715 124.176 20.715C123.586 20.715 123.041 20.815 122.541 21.015C122.051 21.215 121.621 21.5 121.251 21.87C120.881 22.23 120.591 22.655 120.381 23.145C120.181 23.635 120.081 24.17 120.081 24.75C120.081 25.33 120.181 25.865 120.381 26.355C120.591 26.845 120.881 27.275 121.251 27.645C121.621 28.005 122.051 28.285 122.541 28.485C123.041 28.685 123.586 28.785 124.176 28.785ZM132.493 30V19.5H133.723L140.668 28.125H140.023V19.5H141.523V30H140.293L133.348 21.375H133.993V30H132.493ZM145.126 30V19.5H146.626V30H145.126ZM153.29 30.12C152.49 30.12 151.725 30 150.995 29.76C150.265 29.51 149.69 29.19 149.27 28.8L149.825 27.63C150.225 27.98 150.735 28.27 151.355 28.5C151.975 28.73 152.62 28.845 153.29 28.845C153.9 28.845 154.395 28.775 154.775 28.635C155.155 28.495 155.435 28.305 155.615 28.065C155.795 27.815 155.885 27.535 155.885 27.225C155.885 26.865 155.765 26.575 155.525 26.355C155.295 26.135 154.99 25.96 154.61 25.83C154.24 25.69 153.83 25.57 153.38 25.47C152.93 25.37 152.475 25.255 152.015 25.125C151.565 24.985 151.15 24.81 150.77 24.6C150.4 24.39 150.1 24.11 149.87 23.76C149.64 23.4 149.525 22.94 149.525 22.38C149.525 21.84 149.665 21.345 149.945 20.895C150.235 20.435 150.675 20.07 151.265 19.8C151.865 19.52 152.625 19.38 153.545 19.38C154.155 19.38 154.76 19.46 155.36 19.62C155.96 19.78 156.48 20.01 156.92 20.31L156.425 21.51C155.975 21.21 155.5 20.995 155 20.865C154.5 20.725 154.015 20.655 153.545 20.655C152.955 20.655 152.47 20.73 152.09 20.88C151.71 21.03 151.43 21.23 151.25 21.48C151.08 21.73 150.995 22.01 150.995 22.32C150.995 22.69 151.11 22.985 151.34 23.205C151.58 23.425 151.885 23.6 152.255 23.73C152.635 23.86 153.05 23.98 153.5 24.09C153.95 24.19 154.4 24.305 154.85 24.435C155.31 24.565 155.725 24.735 156.095 24.945C156.475 25.155 156.78 25.435 157.01 25.785C157.24 26.135 157.355 26.585 157.355 27.135C157.355 27.665 157.21 28.16 156.92 28.62C156.63 29.07 156.18 29.435 155.57 29.715C154.97 29.985 154.21 30.12 153.29 30.12ZM161.945 30V20.805H158.345V19.5H167.03V20.805H163.43V30H161.945Z" fill="white"/>
</g>
<defs>
<filter id="filter0_ddd_92_5762" x="0" y="0" width="195" height="52" filterUnits="userSpaceOnUse" color-interpolation-filters="sRGB">
<feFlood flood-opacity="0" result="BackgroundImageFix"/>
<feColorMatrix in="SourceAlpha" type="matrix" values="0 0 0 0 0 0 0 0 0 0 0 0 0 0 0 0 0 0 127 0" result="hardAlpha"/>
<feMorphology radius="2" operator="erode" in="SourceAlpha" result="effect1_dropShadow_92_5762"/>
<feOffset dy="3"/>
<feGaussianBlur stdDeviation="0.5"/>
<feComposite in2="hardAlpha" operator="out"/>
<feColorMatrix type="matrix" values="0 0 0 0 0 0 0 0 0 0 0 0 0 0 0 0 0 0 0.2 0"/>
<feBlend mode="normal" in2="BackgroundImageFix" result="effect1_dropShadow_92_5762"/>
<feColorMatrix in="SourceAlpha" type="matrix" values="0 0 0 0 0 0 0 0 0 0 0 0 0 0 0 0 0 0 127 0" result="hardAlpha"/>
<feOffset dy="2"/>
<feGaussianBlur stdDeviation="1"/>
<feComposite in2="hardAlpha" operator="out"/>
<feColorMatrix type="matrix" values="0 0 0 0 0 0 0 0 0 0 0 0 0 0 0 0 0 0 0.14 0"/>
<feBlend mode="normal" in2="effect1_dropShadow_92_5762" result="effect2_dropShadow_92_5762"/>
<feColorMatrix in="SourceAlpha" type="matrix" values="0 0 0 0 0 0 0 0 0 0 0 0 0 0 0 0 0 0 127 0" result="hardAlpha"/>
<feOffset dy="1"/>
<feGaussianBlur stdDeviation="2.5"/>
<feComposite in2="hardAlpha" operator="out"/>
<feColorMatrix type="matrix" values="0 0 0 0 0 0 0 0 0 0 0 0 0 0 0 0 0 0 0.12 0"/>
<feBlend mode="normal" in2="effect2_dropShadow_92_5762" result="effect3_dropShadow_92_5762"/>
<feBlend mode="normal" in="SourceGraphic" in2="effect3_dropShadow_92_5762" result="shape"/>
</filter>
</defs>
</svg>
