<svg width="203" height="52" viewBox="0 0 203 52" fill="none" xmlns="http://www.w3.org/2000/svg">
<g filter="url(#filter0_ddd_92_5761)">
<rect x="5" y="4" width="193" height="42" rx="21" fill="#2196F3"/>
<path d="M33 33.8955C29.038 32.3935 25.7039 29.3359 24.4903 25.5C24.1724 24.495 24 23.4366 24 22.3388C24 19.3876 26.241 17 29.004 17C30.642 17 32.091 17.8404 33 19.1393C33.909 17.8404 35.367 17 36.996 17C39.759 17 42 19.3876 42 22.3388C42 23.2086 41.8487 24.1055 41.5682 25C40.4063 28.705 37.0276 32.3686 33 33.8955Z" fill="white"/>
<path d="M41.5682 25C41.8487 24.1055 42 23.2086 42 22.3388C42 19.3876 39.759 17 36.996 17C35.367 17 33.909 17.8404 33 19.1393C32.091 17.8404 30.642 17 29.004 17C26.241 17 24 19.3876 24 22.3388C24 23.4366 24.1724 24.495 24.4903 25.5M41.5682 25C40.4063 28.705 37.0276 32.3686 33 33.8955C29.038 32.3935 25.7039 29.3359 24.4903 25.5M41.5682 25H39.1036C39.0372 25 38.9737 24.9737 38.9268 24.9268L37.7453 23.7453C37.6246 23.6246 37.4212 23.6576 37.3449 23.8102L36.1551 26.1898C36.0788 26.3424 35.8754 26.3754 35.7547 26.2547L34.7087 25.2087C34.5994 25.0994 34.4183 25.1144 34.3285 25.2401L32.3223 28.0487C32.1972 28.224 31.9237 28.1695 31.8753 27.9596L30.6463 22.6338C30.5948 22.4107 30.2953 22.3684 30.1841 22.5686L28.1872 26.163C28.0993 26.3213 27.8774 26.3365 27.7687 26.1916L26.673 24.7306C26.5817 24.6089 26.4038 24.5962 26.2962 24.7038L25.5732 25.4268C25.5263 25.4737 25.4628 25.5 25.3964 25.5H24.9482H24.4903" stroke="#2196F3" stroke-linecap="round" stroke-linejoin="round"/>
<path d="M59.27 30.12C58.47 30.12 57.73 29.99 57.05 29.73C56.38 29.46 55.795 29.085 55.295 28.605C54.805 28.115 54.42 27.545 54.14 26.895C53.86 26.245 53.72 25.53 53.72 24.75C53.72 23.97 53.86 23.255 54.14 22.605C54.42 21.955 54.81 21.39 55.31 20.91C55.81 20.42 56.395 20.045 57.065 19.785C57.745 19.515 58.485 19.38 59.285 19.38C60.095 19.38 60.84 19.52 61.52 19.8C62.21 20.07 62.795 20.475 63.275 21.015L62.3 21.96C61.9 21.54 61.45 21.23 60.95 21.03C60.45 20.82 59.915 20.715 59.345 20.715C58.755 20.715 58.205 20.815 57.695 21.015C57.195 21.215 56.76 21.495 56.39 21.855C56.02 22.215 55.73 22.645 55.52 23.145C55.32 23.635 55.22 24.17 55.22 24.75C55.22 25.33 55.32 25.87 55.52 26.37C55.73 26.86 56.02 27.285 56.39 27.645C56.76 28.005 57.195 28.285 57.695 28.485C58.205 28.685 58.755 28.785 59.345 28.785C59.915 28.785 60.45 28.685 60.95 28.485C61.45 28.275 61.9 27.955 62.3 27.525L63.275 28.47C62.795 29.01 62.21 29.42 61.52 29.7C60.84 29.98 60.09 30.12 59.27 30.12ZM64.0358 30L68.7908 19.5H70.2758L75.0458 30H73.4708L69.2258 20.34H69.8258L65.5808 30H64.0358ZM66.0608 27.375L66.4658 26.175H72.3758L72.8108 27.375H66.0608ZM77.0721 30V19.5H81.1671C82.0871 19.5 82.8721 19.645 83.5221 19.935C84.1721 20.225 84.6721 20.645 85.0221 21.195C85.3721 21.745 85.5471 22.4 85.5471 23.16C85.5471 23.92 85.3721 24.575 85.0221 25.125C84.6721 25.665 84.1721 26.08 83.5221 26.37C82.8721 26.66 82.0871 26.805 81.1671 26.805H77.8971L78.5721 26.115V30H77.0721ZM84.0921 30L81.4221 26.19H83.0271L85.7271 30H84.0921ZM78.5721 26.265L77.8971 25.53H81.1221C82.0821 25.53 82.8071 25.325 83.2971 24.915C83.7971 24.495 84.0471 23.91 84.0471 23.16C84.0471 22.41 83.7971 21.83 83.2971 21.42C82.8071 21.01 82.0821 20.805 81.1221 20.805H77.8971L78.5721 20.055V26.265ZM88.4306 30V19.5H92.8556C93.9756 19.5 94.9606 19.72 95.8106 20.16C96.6706 20.6 97.3356 21.215 97.8056 22.005C98.2856 22.795 98.5256 23.71 98.5256 24.75C98.5256 25.79 98.2856 26.705 97.8056 27.495C97.3356 28.285 96.6706 28.9 95.8106 29.34C94.9606 29.78 93.9756 30 92.8556 30H88.4306ZM89.9306 28.695H92.7656C93.6356 28.695 94.3856 28.53 95.0156 28.2C95.6556 27.87 96.1506 27.41 96.5006 26.82C96.8506 26.22 97.0256 25.53 97.0256 24.75C97.0256 23.96 96.8506 23.27 96.5006 22.68C96.1506 22.09 95.6556 21.63 95.0156 21.3C94.3856 20.97 93.6356 20.805 92.7656 20.805H89.9306V28.695ZM101.283 30V19.5H102.783V30H101.283ZM111.127 30.12C110.327 30.12 109.582 29.985 108.892 29.715C108.212 29.445 107.622 29.07 107.122 28.59C106.622 28.1 106.232 27.53 105.952 26.88C105.672 26.23 105.532 25.52 105.532 24.75C105.532 23.98 105.672 23.27 105.952 22.62C106.232 21.97 106.622 21.405 107.122 20.925C107.622 20.435 108.212 20.055 108.892 19.785C109.572 19.515 110.317 19.38 111.127 19.38C111.927 19.38 112.662 19.515 113.332 19.785C114.012 20.045 114.602 20.42 115.102 20.91C115.612 21.39 116.002 21.955 116.272 22.605C116.552 23.255 116.692 23.97 116.692 24.75C116.692 25.53 116.552 26.245 116.272 26.895C116.002 27.545 115.612 28.115 115.102 28.605C114.602 29.085 114.012 29.46 113.332 29.73C112.662 29.99 111.927 30.12 111.127 30.12ZM111.127 28.785C111.707 28.785 112.242 28.685 112.732 28.485C113.232 28.285 113.662 28.005 114.022 27.645C114.392 27.275 114.677 26.845 114.877 26.355C115.087 25.865 115.192 25.33 115.192 24.75C115.192 24.17 115.087 23.635 114.877 23.145C114.677 22.655 114.392 22.23 114.022 21.87C113.662 21.5 113.232 21.215 112.732 21.015C112.242 20.815 111.707 20.715 111.127 20.715C110.537 20.715 109.992 20.815 109.492 21.015C109.002 21.215 108.572 21.5 108.202 21.87C107.832 22.23 107.542 22.655 107.332 23.145C107.132 23.635 107.032 24.17 107.032 24.75C107.032 25.33 107.132 25.865 107.332 26.355C107.542 26.845 107.832 27.275 108.202 27.645C108.572 28.005 109.002 28.285 109.492 28.485C109.992 28.685 110.537 28.785 111.127 28.785ZM119.444 30V19.5H120.944V28.695H126.629V30H119.444ZM133.36 30.12C132.56 30.12 131.815 29.985 131.125 29.715C130.445 29.445 129.855 29.07 129.355 28.59C128.855 28.1 128.465 27.53 128.185 26.88C127.905 26.23 127.765 25.52 127.765 24.75C127.765 23.98 127.905 23.27 128.185 22.62C128.465 21.97 128.855 21.405 129.355 20.925C129.855 20.435 130.445 20.055 131.125 19.785C131.805 19.515 132.55 19.38 133.36 19.38C134.16 19.38 134.895 19.515 135.565 19.785C136.245 20.045 136.835 20.42 137.335 20.91C137.845 21.39 138.235 21.955 138.505 22.605C138.785 23.255 138.925 23.97 138.925 24.75C138.925 25.53 138.785 26.245 138.505 26.895C138.235 27.545 137.845 28.115 137.335 28.605C136.835 29.085 136.245 29.46 135.565 29.73C134.895 29.99 134.16 30.12 133.36 30.12ZM133.36 28.785C133.94 28.785 134.475 28.685 134.965 28.485C135.465 28.285 135.895 28.005 136.255 27.645C136.625 27.275 136.91 26.845 137.11 26.355C137.32 25.865 137.425 25.33 137.425 24.75C137.425 24.17 137.32 23.635 137.11 23.145C136.91 22.655 136.625 22.23 136.255 21.87C135.895 21.5 135.465 21.215 134.965 21.015C134.475 20.815 133.94 20.715 133.36 20.715C132.77 20.715 132.225 20.815 131.725 21.015C131.235 21.215 130.805 21.5 130.435 21.87C130.065 22.23 129.775 22.655 129.565 23.145C129.365 23.635 129.265 24.17 129.265 24.75C129.265 25.33 129.365 25.865 129.565 26.355C129.775 26.845 130.065 27.275 130.435 27.645C130.805 28.005 131.235 28.285 131.725 28.485C132.225 28.685 132.77 28.785 133.36 28.785ZM146.418 30.12C145.608 30.12 144.863 29.99 144.183 29.73C143.503 29.46 142.913 29.085 142.413 28.605C141.913 28.115 141.523 27.545 141.243 26.895C140.963 26.245 140.823 25.53 140.823 24.75C140.823 23.97 140.963 23.255 141.243 22.605C141.523 21.955 141.913 21.39 142.413 20.91C142.923 20.42 143.518 20.045 144.198 19.785C144.878 19.515 145.628 19.38 146.448 19.38C147.278 19.38 148.038 19.515 148.728 19.785C149.418 20.055 150.003 20.46 150.483 21L149.553 21.93C149.123 21.51 148.653 21.205 148.143 21.015C147.643 20.815 147.098 20.715 146.508 20.715C145.908 20.715 145.348 20.815 144.828 21.015C144.318 21.215 143.873 21.495 143.493 21.855C143.123 22.215 142.833 22.645 142.623 23.145C142.423 23.635 142.323 24.17 142.323 24.75C142.323 25.32 142.423 25.855 142.623 26.355C142.833 26.845 143.123 27.275 143.493 27.645C143.873 28.005 144.318 28.285 144.828 28.485C145.338 28.685 145.893 28.785 146.493 28.785C147.053 28.785 147.588 28.7 148.098 28.53C148.618 28.35 149.098 28.055 149.538 27.645L150.393 28.785C149.873 29.225 149.263 29.56 148.563 29.79C147.873 30.01 147.158 30.12 146.418 30.12ZM148.953 28.59V24.69H150.393V28.785L148.953 28.59ZM153.725 30V19.5H155.225V30H153.725ZM161.888 30.12C161.088 30.12 160.323 30 159.593 29.76C158.863 29.51 158.288 29.19 157.868 28.8L158.423 27.63C158.823 27.98 159.333 28.27 159.953 28.5C160.573 28.73 161.218 28.845 161.888 28.845C162.498 28.845 162.993 28.775 163.373 28.635C163.753 28.495 164.033 28.305 164.213 28.065C164.393 27.815 164.483 27.535 164.483 27.225C164.483 26.865 164.363 26.575 164.123 26.355C163.893 26.135 163.588 25.96 163.208 25.83C162.838 25.69 162.428 25.57 161.978 25.47C161.528 25.37 161.073 25.255 160.613 25.125C160.163 24.985 159.748 24.81 159.368 24.6C158.998 24.39 158.698 24.11 158.468 23.76C158.238 23.4 158.123 22.94 158.123 22.38C158.123 21.84 158.263 21.345 158.543 20.895C158.833 20.435 159.273 20.07 159.863 19.8C160.463 19.52 161.223 19.38 162.143 19.38C162.753 19.38 163.358 19.46 163.958 19.62C164.558 19.78 165.078 20.01 165.518 20.31L165.023 21.51C164.573 21.21 164.098 20.995 163.598 20.865C163.098 20.725 162.613 20.655 162.143 20.655C161.553 20.655 161.068 20.73 160.688 20.88C160.308 21.03 160.028 21.23 159.848 21.48C159.678 21.73 159.593 22.01 159.593 22.32C159.593 22.69 159.708 22.985 159.938 23.205C160.178 23.425 160.483 23.6 160.853 23.73C161.233 23.86 161.648 23.98 162.098 24.09C162.548 24.19 162.998 24.305 163.448 24.435C163.908 24.565 164.323 24.735 164.693 24.945C165.073 25.155 165.378 25.435 165.608 25.785C165.838 26.135 165.953 26.585 165.953 27.135C165.953 27.665 165.808 28.16 165.518 28.62C165.228 29.07 164.778 29.435 164.168 29.715C163.568 29.985 162.808 30.12 161.888 30.12ZM170.543 30V20.805H166.943V19.5H175.628V20.805H172.028V30H170.543Z" fill="white"/>
</g>
<defs>
<filter id="filter0_ddd_92_5761" x="0" y="0" width="203" height="52" filterUnits="userSpaceOnUse" color-interpolation-filters="sRGB">
<feFlood flood-opacity="0" result="BackgroundImageFix"/>
<feColorMatrix in="SourceAlpha" type="matrix" values="0 0 0 0 0 0 0 0 0 0 0 0 0 0 0 0 0 0 127 0" result="hardAlpha"/>
<feMorphology radius="2" operator="erode" in="SourceAlpha" result="effect1_dropShadow_92_5761"/>
<feOffset dy="3"/>
<feGaussianBlur stdDeviation="0.5"/>
<feComposite in2="hardAlpha" operator="out"/>
<feColorMatrix type="matrix" values="0 0 0 0 0 0 0 0 0 0 0 0 0 0 0 0 0 0 0.2 0"/>
<feBlend mode="normal" in2="BackgroundImageFix" result="effect1_dropShadow_92_5761"/>
<feColorMatrix in="SourceAlpha" type="matrix" values="0 0 0 0 0 0 0 0 0 0 0 0 0 0 0 0 0 0 127 0" result="hardAlpha"/>
<feOffset dy="2"/>
<feGaussianBlur stdDeviation="1"/>
<feComposite in2="hardAlpha" operator="out"/>
<feColorMatrix type="matrix" values="0 0 0 0 0 0 0 0 0 0 0 0 0 0 0 0 0 0 0.14 0"/>
<feBlend mode="normal" in2="effect1_dropShadow_92_5761" result="effect2_dropShadow_92_5761"/>
<feColorMatrix in="SourceAlpha" type="matrix" values="0 0 0 0 0 0 0 0 0 0 0 0 0 0 0 0 0 0 127 0" result="hardAlpha"/>
<feOffset dy="1"/>
<feGaussianBlur stdDeviation="2.5"/>
<feComposite in2="hardAlpha" operator="out"/>
<feColorMatrix type="matrix" values="0 0 0 0 0 0 0 0 0 0 0 0 0 0 0 0 0 0 0.12 0"/>
<feBlend mode="normal" in2="effect2_dropShadow_92_5761" result="effect3_dropShadow_92_5761"/>
<feBlend mode="normal" in="SourceGraphic" in2="effect3_dropShadow_92_5761" result="shape"/>
</filter>
</defs>
</svg>
