<svg width="149" height="52" viewBox="0 0 149 52" fill="none" xmlns="http://www.w3.org/2000/svg">
<g filter="url(#filter0_ddd_92_5764)">
<rect x="5" y="4" width="139" height="42" rx="21" fill="#2196F3"/>
<path d="M30.5712 29.489C30.1479 30.4098 30.0103 31.4365 29.6504 32.3784C29.4413 33.1617 28.7168 32.9574 28.2427 32.516C25.3574 29.3009 23.1718 21.5065 26.5916 17.8888C28.3397 15.9436 30.0002 18.6692 33.0002 18.6692C36.0002 18.6692 37.6828 15.9616 39.4195 17.8888C42.8409 21.5343 40.5926 29.2978 37.6943 32.516C37.2481 32.998 36.4777 33.1409 36.276 32.3784C35.9162 31.4365 35.7892 30.4098 35.3658 29.489C34.4235 27.2208 31.5421 27.3099 30.5712 29.489Z" fill="white" stroke="#2196F3" stroke-miterlimit="10"/>
<path d="M38 19C39 19.5 39 20.5 39 21" stroke="#2196F3" stroke-linecap="round"/>
<path d="M54.575 30V19.5H59C60.12 19.5 61.105 19.72 61.955 20.16C62.815 20.6 63.48 21.215 63.95 22.005C64.43 22.795 64.67 23.71 64.67 24.75C64.67 25.79 64.43 26.705 63.95 27.495C63.48 28.285 62.815 28.9 61.955 29.34C61.105 29.78 60.12 30 59 30H54.575ZM56.075 28.695H58.91C59.78 28.695 60.53 28.53 61.16 28.2C61.8 27.87 62.295 27.41 62.645 26.82C62.995 26.22 63.17 25.53 63.17 24.75C63.17 23.96 62.995 23.27 62.645 22.68C62.295 22.09 61.8 21.63 61.16 21.3C60.53 20.97 59.78 20.805 58.91 20.805H56.075V28.695ZM68.7926 24.03H74.1926V25.305H68.7926V24.03ZM68.9276 28.695H75.0476V30H67.4276V19.5H74.8376V20.805H68.9276V28.695ZM77.9364 30V19.5H79.1664L86.1114 28.125H85.4664V19.5H86.9664V30H85.7364L78.7914 21.375H79.4364V30H77.9364ZM92.6543 30V20.805H89.0543V19.5H97.7393V20.805H94.1393V30H92.6543ZM99.833 30V19.5H101.333V30H99.833ZM107.997 30.12C107.197 30.12 106.432 30 105.702 29.76C104.972 29.51 104.397 29.19 103.977 28.8L104.532 27.63C104.932 27.98 105.442 28.27 106.062 28.5C106.682 28.73 107.327 28.845 107.997 28.845C108.607 28.845 109.102 28.775 109.482 28.635C109.862 28.495 110.142 28.305 110.322 28.065C110.502 27.815 110.592 27.535 110.592 27.225C110.592 26.865 110.472 26.575 110.232 26.355C110.002 26.135 109.697 25.96 109.317 25.83C108.947 25.69 108.537 25.57 108.087 25.47C107.637 25.37 107.182 25.255 106.722 25.125C106.272 24.985 105.857 24.81 105.477 24.6C105.107 24.39 104.807 24.11 104.577 23.76C104.347 23.4 104.232 22.94 104.232 22.38C104.232 21.84 104.372 21.345 104.652 20.895C104.942 20.435 105.382 20.07 105.972 19.8C106.572 19.52 107.332 19.38 108.252 19.38C108.862 19.38 109.467 19.46 110.067 19.62C110.667 19.78 111.187 20.01 111.627 20.31L111.132 21.51C110.682 21.21 110.207 20.995 109.707 20.865C109.207 20.725 108.722 20.655 108.252 20.655C107.662 20.655 107.177 20.73 106.797 20.88C106.417 21.03 106.137 21.23 105.957 21.48C105.787 21.73 105.702 22.01 105.702 22.32C105.702 22.69 105.817 22.985 106.047 23.205C106.287 23.425 106.592 23.6 106.962 23.73C107.342 23.86 107.757 23.98 108.207 24.09C108.657 24.19 109.107 24.305 109.557 24.435C110.017 24.565 110.432 24.735 110.802 24.945C111.182 25.155 111.487 25.435 111.717 25.785C111.947 26.135 112.062 26.585 112.062 27.135C112.062 27.665 111.917 28.16 111.627 28.62C111.337 29.07 110.887 29.435 110.277 29.715C109.677 29.985 108.917 30.12 107.997 30.12ZM116.651 30V20.805H113.051V19.5H121.736V20.805H118.136V30H116.651Z" fill="white"/>
</g>
<defs>
<filter id="filter0_ddd_92_5764" x="0" y="0" width="149" height="52" filterUnits="userSpaceOnUse" color-interpolation-filters="sRGB">
<feFlood flood-opacity="0" result="BackgroundImageFix"/>
<feColorMatrix in="SourceAlpha" type="matrix" values="0 0 0 0 0 0 0 0 0 0 0 0 0 0 0 0 0 0 127 0" result="hardAlpha"/>
<feMorphology radius="2" operator="erode" in="SourceAlpha" result="effect1_dropShadow_92_5764"/>
<feOffset dy="3"/>
<feGaussianBlur stdDeviation="0.5"/>
<feComposite in2="hardAlpha" operator="out"/>
<feColorMatrix type="matrix" values="0 0 0 0 0 0 0 0 0 0 0 0 0 0 0 0 0 0 0.2 0"/>
<feBlend mode="normal" in2="BackgroundImageFix" result="effect1_dropShadow_92_5764"/>
<feColorMatrix in="SourceAlpha" type="matrix" values="0 0 0 0 0 0 0 0 0 0 0 0 0 0 0 0 0 0 127 0" result="hardAlpha"/>
<feOffset dy="2"/>
<feGaussianBlur stdDeviation="1"/>
<feComposite in2="hardAlpha" operator="out"/>
<feColorMatrix type="matrix" values="0 0 0 0 0 0 0 0 0 0 0 0 0 0 0 0 0 0 0.14 0"/>
<feBlend mode="normal" in2="effect1_dropShadow_92_5764" result="effect2_dropShadow_92_5764"/>
<feColorMatrix in="SourceAlpha" type="matrix" values="0 0 0 0 0 0 0 0 0 0 0 0 0 0 0 0 0 0 127 0" result="hardAlpha"/>
<feOffset dy="1"/>
<feGaussianBlur stdDeviation="2.5"/>
<feComposite in2="hardAlpha" operator="out"/>
<feColorMatrix type="matrix" values="0 0 0 0 0 0 0 0 0 0 0 0 0 0 0 0 0 0 0.12 0"/>
<feBlend mode="normal" in2="effect2_dropShadow_92_5764" result="effect3_dropShadow_92_5764"/>
<feBlend mode="normal" in="SourceGraphic" in2="effect3_dropShadow_92_5764" result="shape"/>
</filter>
</defs>
</svg>
