<svg width="101" height="24" viewBox="0 0 101 24" fill="none" xmlns="http://www.w3.org/2000/svg">
<path d="M12 10.5C16.3392 10.5 18.9508 6.79576 19.4529 6.96485C19.4762 6.97271 19.4651 6.99999 19.4405 6.99999H4.57699C4.54964 6.99999 4.54256 6.97466 4.56991 6.9747C5.14861 6.97543 7.70711 10.5 12 10.5ZM12 10.5V11M12 20.5H16M12 20.5H8M12 20.5L12 18.5M12 13.5V16" stroke="white" stroke-linecap="round"/>
<path d="M9.5 18.5001C10 17.0001 14.5 17.5001 14.5 16.0001C14.5 15.509 14.0292 15.246 13.341 15.085M11.6046 4.00006H10.6442C10.5581 4.00006 10.4816 4.05515 10.4544 4.13682L10.0316 5.40519C10.0186 5.44428 10.0558 5.48147 10.0949 5.46844L11.3777 5.04081C11.4522 5.016 11.5052 4.94994 11.5134 4.87189L11.6046 4.00006ZM11.6046 4.00006C13.4345 2.77687 15.5538 3.78469 16.5 5.36549M10.5677 14.7501C9.19933 14.6048 8.5 14.0001 8.5 13.5001C8.5 12.0415 14.5518 12.4666 15.8749 11.1507" stroke="white" stroke-linecap="round"/>
<path d="M29.692 18V5.4H31.618L39.52 15.102H38.566V5.4H40.888V18H38.962L31.06 8.298H32.014V18H29.692ZM48.1163 18.126C47.3003 18.126 46.5803 17.976 45.9563 17.676C45.3323 17.364 44.8463 16.896 44.4983 16.272C44.1503 15.636 43.9763 14.838 43.9763 13.878V8.388H46.2263V13.572C46.2263 14.436 46.4183 15.084 46.8023 15.516C47.1983 15.936 47.7563 16.146 48.4763 16.146C49.0043 16.146 49.4603 16.038 49.8443 15.822C50.2403 15.606 50.5463 15.282 50.7623 14.85C50.9903 14.418 51.1043 13.884 51.1043 13.248V8.388H53.3543V18H51.2123V15.408L51.5903 16.2C51.2663 16.824 50.7923 17.304 50.1683 17.64C49.5443 17.964 48.8603 18.126 48.1163 18.126ZM56.3002 18V8.388H58.4422V11.034L58.1902 10.26C58.4782 9.612 58.9282 9.12 59.5402 8.784C60.1642 8.448 60.9382 8.28 61.8622 8.28V10.422C61.7662 10.398 61.6762 10.386 61.5922 10.386C61.5082 10.374 61.4242 10.368 61.3402 10.368C60.4882 10.368 59.8102 10.62 59.3062 11.124C58.8022 11.616 58.5502 12.354 58.5502 13.338V18H56.3002ZM69.0074 18V16.056L68.8814 15.642V12.24C68.8814 11.58 68.6834 11.07 68.2874 10.71C67.8914 10.338 67.2914 10.152 66.4874 10.152C65.9474 10.152 65.4134 10.236 64.8854 10.404C64.3694 10.572 63.9314 10.806 63.5714 11.106L62.6894 9.468C63.2054 9.072 63.8174 8.778 64.5254 8.586C65.2454 8.382 65.9894 8.28 66.7574 8.28C68.1494 8.28 69.2234 8.616 69.9794 9.288C70.7474 9.948 71.1314 10.974 71.1314 12.366V18H69.0074ZM65.9834 18.126C65.2634 18.126 64.6334 18.006 64.0934 17.766C63.5534 17.514 63.1334 17.172 62.8334 16.74C62.5454 16.296 62.4014 15.798 62.4014 15.246C62.4014 14.706 62.5274 14.22 62.7794 13.788C63.0434 13.356 63.4694 13.014 64.0574 12.762C64.6454 12.51 65.4254 12.384 66.3974 12.384H69.1874V13.878H66.5594C65.7914 13.878 65.2754 14.004 65.0114 14.256C64.7474 14.496 64.6154 14.796 64.6154 15.156C64.6154 15.564 64.7774 15.888 65.1014 16.128C65.4254 16.368 65.8754 16.488 66.4514 16.488C67.0034 16.488 67.4954 16.362 67.9274 16.11C68.3714 15.858 68.6894 15.486 68.8814 14.994L69.2594 16.344C69.0434 16.908 68.6534 17.346 68.0894 17.658C67.5374 17.97 66.8354 18.126 65.9834 18.126ZM74.325 18V7.848C74.325 6.84 74.619 6.036 75.207 5.436C75.807 4.824 76.659 4.518 77.763 4.518C78.159 4.518 78.531 4.56 78.879 4.644C79.239 4.728 79.539 4.86 79.779 5.04L79.167 6.732C78.999 6.6 78.807 6.504 78.591 6.444C78.375 6.372 78.153 6.336 77.925 6.336C77.457 6.336 77.103 6.468 76.863 6.732C76.623 6.984 76.503 7.368 76.503 7.884V8.964L76.575 9.972V18H74.325ZM72.741 10.26V8.46H79.149V10.26H72.741ZM79.8715 18V16.578L85.7935 9.414L86.2075 10.188H79.9795V8.388H88.0075V9.81L82.0855 16.974L81.6355 16.2H88.1695V18H79.8715ZM94.423 18.126C93.439 18.126 92.563 17.916 91.795 17.496C91.027 17.064 90.421 16.476 89.977 15.732C89.533 14.988 89.311 14.142 89.311 13.194C89.311 12.234 89.533 11.388 89.977 10.656C90.421 9.912 91.027 9.33 91.795 8.91C92.563 8.49 93.439 8.28 94.423 8.28C95.419 8.28 96.301 8.49 97.069 8.91C97.849 9.33 98.455 9.906 98.887 10.638C99.331 11.37 99.553 12.222 99.553 13.194C99.553 14.142 99.331 14.988 98.887 15.732C98.455 16.476 97.849 17.064 97.069 17.496C96.301 17.916 95.419 18.126 94.423 18.126ZM94.423 16.2C94.975 16.2 95.467 16.08 95.899 15.84C96.331 15.6 96.667 15.252 96.907 14.796C97.159 14.34 97.285 13.806 97.285 13.194C97.285 12.57 97.159 12.036 96.907 11.592C96.667 11.136 96.331 10.788 95.899 10.548C95.467 10.308 94.981 10.188 94.441 10.188C93.889 10.188 93.397 10.308 92.965 10.548C92.545 10.788 92.209 11.136 91.957 11.592C91.705 12.036 91.579 12.57 91.579 13.194C91.579 13.806 91.705 14.34 91.957 14.796C92.209 15.252 92.545 15.6 92.965 15.84C93.397 16.08 93.883 16.2 94.423 16.2Z" fill="black"/>
</svg>
