<svg width="70" height="48" viewBox="0 0 70 48" fill="none" xmlns="http://www.w3.org/2000/svg">
<path d="M28 19V3C28 2.46957 28.2107 1.96086 28.5858 1.58579C28.9609 1.21071 29.4696 1 30 1H40C40.5304 1 41.0391 1.21071 41.4142 1.58579C41.7893 1.96086 42 2.46957 42 3V19L36.082 15.195C35.7593 14.9874 35.3837 14.877 35 14.877C34.6163 14.877 34.2407 14.9874 33.918 15.195L28 19Z" stroke="black" stroke-width="1.5" stroke-linecap="round" stroke-linejoin="round"/>
<path d="M1.72159 42V30.3636H8.69886V31.6136H3.13068V35.5455H8.17614V36.7955H3.13068V42H1.72159ZM13.4986 42.2045C12.9455 42.2045 12.4437 42.1004 11.9929 41.892C11.5421 41.6799 11.1842 41.375 10.919 40.9773C10.6539 40.5758 10.5213 40.0909 10.5213 39.5227C10.5213 39.0227 10.6198 38.6174 10.8168 38.3068C11.0137 37.9924 11.277 37.7462 11.6065 37.5682C11.9361 37.3902 12.2997 37.2576 12.6974 37.1705C13.099 37.0795 13.5024 37.0076 13.9077 36.9545C14.438 36.8864 14.8679 36.8352 15.1974 36.8011C15.5308 36.7633 15.7732 36.7008 15.9247 36.6136C16.08 36.5265 16.1577 36.375 16.1577 36.1591V36.1136C16.1577 35.553 16.0043 35.1174 15.6974 34.8068C15.3944 34.4962 14.9342 34.3409 14.3168 34.3409C13.6766 34.3409 13.1747 34.4811 12.8111 34.7614C12.4474 35.0417 12.1918 35.3409 12.044 35.6591L10.7713 35.2045C10.9986 34.6742 11.3016 34.2614 11.6804 33.9659C12.063 33.6667 12.4796 33.4583 12.9304 33.3409C13.3849 33.2197 13.8319 33.1591 14.2713 33.1591C14.5516 33.1591 14.8736 33.1932 15.2372 33.2614C15.6046 33.3258 15.9588 33.4602 16.2997 33.6648C16.6444 33.8693 16.9304 34.178 17.1577 34.5909C17.3849 35.0038 17.4986 35.5568 17.4986 36.25V42H16.1577V40.8182H16.0895C15.9986 41.0076 15.8471 41.2102 15.6349 41.4261C15.4228 41.642 15.1406 41.8258 14.7884 41.9773C14.4361 42.1288 14.0062 42.2045 13.4986 42.2045ZM13.7031 41C14.2334 41 14.6804 40.8958 15.044 40.6875C15.4115 40.4792 15.688 40.2102 15.8736 39.8807C16.063 39.5511 16.1577 39.2045 16.1577 38.8409V37.6136C16.1009 37.6818 15.9759 37.7443 15.7827 37.8011C15.5933 37.8542 15.3736 37.9015 15.1236 37.9432C14.8774 37.9811 14.6368 38.0152 14.402 38.0455C14.1709 38.072 13.9834 38.0947 13.8395 38.1136C13.491 38.1591 13.1652 38.233 12.8622 38.3352C12.563 38.4337 12.3205 38.5833 12.1349 38.7841C11.9531 38.9811 11.8622 39.25 11.8622 39.5909C11.8622 40.0568 12.0346 40.4091 12.3793 40.6477C12.7277 40.8826 13.169 41 13.7031 41ZM26.7699 33.2727L23.5426 42H22.179L18.9517 33.2727H20.4062L22.8153 40.2273H22.9062L25.3153 33.2727H26.7699ZM31.7727 42.1818C30.9848 42.1818 30.2936 41.9943 29.6989 41.6193C29.108 41.2443 28.6458 40.7197 28.3125 40.0455C27.983 39.3712 27.8182 38.5833 27.8182 37.6818C27.8182 36.7727 27.983 35.9792 28.3125 35.3011C28.6458 34.6231 29.108 34.0966 29.6989 33.7216C30.2936 33.3466 30.9848 33.1591 31.7727 33.1591C32.5606 33.1591 33.25 33.3466 33.8409 33.7216C34.4356 34.0966 34.8977 34.6231 35.2273 35.3011C35.5606 35.9792 35.7273 36.7727 35.7273 37.6818C35.7273 38.5833 35.5606 39.3712 35.2273 40.0455C34.8977 40.7197 34.4356 41.2443 33.8409 41.6193C33.25 41.9943 32.5606 42.1818 31.7727 42.1818ZM31.7727 40.9773C32.3712 40.9773 32.8636 40.8239 33.25 40.517C33.6364 40.2102 33.9223 39.8068 34.108 39.3068C34.2936 38.8068 34.3864 38.2652 34.3864 37.6818C34.3864 37.0985 34.2936 36.5549 34.108 36.0511C33.9223 35.5473 33.6364 35.1402 33.25 34.8295C32.8636 34.5189 32.3712 34.3636 31.7727 34.3636C31.1742 34.3636 30.6818 34.5189 30.2955 34.8295C29.9091 35.1402 29.6231 35.5473 29.4375 36.0511C29.2519 36.5549 29.1591 37.0985 29.1591 37.6818C29.1591 38.2652 29.2519 38.8068 29.4375 39.3068C29.6231 39.8068 29.9091 40.2102 30.2955 40.517C30.6818 40.8239 31.1742 40.9773 31.7727 40.9773ZM37.7741 42V33.2727H39.0696V34.5909H39.1605C39.3196 34.1591 39.6075 33.8087 40.0241 33.5398C40.4408 33.2708 40.9105 33.1364 41.4332 33.1364C41.5317 33.1364 41.6548 33.1383 41.8026 33.142C41.9503 33.1458 42.062 33.1515 42.1378 33.1591V34.5227C42.0923 34.5114 41.9882 34.4943 41.8253 34.4716C41.6662 34.4451 41.4976 34.4318 41.3196 34.4318C40.8954 34.4318 40.5166 34.5208 40.1832 34.6989C39.8537 34.8731 39.5923 35.1155 39.3991 35.4261C39.2098 35.733 39.1151 36.0833 39.1151 36.4773V42H37.7741ZM43.7273 42V33.2727H45.0682V42H43.7273ZM44.4091 31.8182C44.1477 31.8182 43.9223 31.7292 43.733 31.5511C43.5473 31.3731 43.4545 31.1591 43.4545 30.9091C43.4545 30.6591 43.5473 30.4451 43.733 30.267C43.9223 30.089 44.1477 30 44.4091 30C44.6705 30 44.8939 30.089 45.0795 30.267C45.2689 30.4451 45.3636 30.6591 45.3636 30.9091C45.3636 31.1591 45.2689 31.3731 45.0795 31.5511C44.8939 31.7292 44.6705 31.8182 44.4091 31.8182ZM51.3196 33.2727V34.4091H46.7969V33.2727H51.3196ZM48.1151 31.1818H49.456V39.5C49.456 39.8788 49.5109 40.1629 49.6207 40.3523C49.7344 40.5379 49.8783 40.6629 50.0526 40.7273C50.2306 40.7879 50.4181 40.8182 50.6151 40.8182C50.7628 40.8182 50.884 40.8106 50.9787 40.7955C51.0734 40.7765 51.1491 40.7614 51.206 40.75L51.4787 41.9545C51.3878 41.9886 51.2609 42.0227 51.098 42.0568C50.9351 42.0947 50.7287 42.1136 50.4787 42.1136C50.0999 42.1136 49.7287 42.0322 49.3651 41.8693C49.0052 41.7064 48.706 41.4583 48.4673 41.125C48.2325 40.7917 48.1151 40.3712 48.1151 39.8636V31.1818ZM56.902 42.1818C56.0611 42.1818 55.3357 41.9962 54.7259 41.625C54.1198 41.25 53.652 40.7273 53.3224 40.0568C52.9967 39.3826 52.8338 38.5985 52.8338 37.7045C52.8338 36.8106 52.9967 36.0227 53.3224 35.3409C53.652 34.6553 54.1103 34.1212 54.6974 33.7386C55.2884 33.3523 55.9777 33.1591 56.7656 33.1591C57.2202 33.1591 57.669 33.2348 58.1122 33.3864C58.5554 33.5379 58.9588 33.7841 59.3224 34.125C59.6861 34.4621 59.9759 34.9091 60.1918 35.4659C60.4077 36.0227 60.5156 36.7083 60.5156 37.5227V38.0909H53.7884V36.9318H59.152C59.152 36.4394 59.0535 36 58.8565 35.6136C58.6634 35.2273 58.3868 34.9223 58.027 34.6989C57.6709 34.4754 57.2505 34.3636 56.7656 34.3636C56.2315 34.3636 55.7694 34.4962 55.3793 34.7614C54.9929 35.0227 54.6955 35.3636 54.4872 35.7841C54.2789 36.2045 54.1747 36.6553 54.1747 37.1364V37.9091C54.1747 38.5682 54.2884 39.1269 54.5156 39.5852C54.7467 40.0398 55.0668 40.3864 55.4759 40.625C55.8849 40.8598 56.3603 40.9773 56.902 40.9773C57.2543 40.9773 57.5724 40.928 57.8565 40.8295C58.1444 40.7273 58.3925 40.5758 58.6009 40.375C58.8092 40.1705 58.9702 39.9167 59.0838 39.6136L60.3793 39.9773C60.2429 40.4167 60.0137 40.803 59.6918 41.1364C59.3698 41.4659 58.9721 41.7235 58.4986 41.9091C58.0251 42.0909 57.4929 42.1818 56.902 42.1818ZM68.7372 35.2273L67.5327 35.5682C67.4569 35.3674 67.3452 35.1723 67.1974 34.983C67.0535 34.7898 66.8565 34.6307 66.6065 34.5057C66.3565 34.3807 66.0365 34.3182 65.6463 34.3182C65.1122 34.3182 64.6671 34.4413 64.3111 34.6875C63.9588 34.9299 63.7827 35.2386 63.7827 35.6136C63.7827 35.947 63.9039 36.2102 64.1463 36.4034C64.3887 36.5966 64.7675 36.7576 65.2827 36.8864L66.5781 37.2045C67.3584 37.3939 67.9399 37.6837 68.3224 38.0739C68.705 38.4602 68.8963 38.9583 68.8963 39.5682C68.8963 40.0682 68.7524 40.5152 68.4645 40.9091C68.1804 41.303 67.7827 41.6136 67.2713 41.8409C66.7599 42.0682 66.1652 42.1818 65.4872 42.1818C64.5971 42.1818 63.8603 41.9886 63.277 41.6023C62.6937 41.2159 62.3243 40.6515 62.169 39.9091L63.4418 39.5909C63.563 40.0606 63.7921 40.4129 64.1293 40.6477C64.4702 40.8826 64.9152 41 65.4645 41C66.0895 41 66.5857 40.8674 66.9531 40.6023C67.3243 40.3333 67.5099 40.0114 67.5099 39.6364C67.5099 39.3333 67.4039 39.0795 67.1918 38.875C66.9796 38.6667 66.6539 38.5114 66.2145 38.4091L64.7599 38.0682C63.9607 37.8788 63.3736 37.5852 62.9986 37.1875C62.6274 36.786 62.4418 36.2841 62.4418 35.6818C62.4418 35.1894 62.58 34.7538 62.8565 34.375C63.1368 33.9962 63.5175 33.6989 63.9986 33.483C64.4834 33.267 65.0327 33.1591 65.6463 33.1591C66.5099 33.1591 67.188 33.3485 67.6804 33.7273C68.1766 34.1061 68.5289 34.6061 68.7372 35.2273Z" fill="black"/>
</svg>
