<svg width="335" height="36" viewBox="0 0 335 36" fill="none" xmlns="http://www.w3.org/2000/svg">
<path d="M3.36 29V6.6H12.8C15.1893 6.6 17.2907 7.06933 19.104 8.008C20.9387 8.94667 22.3573 10.2587 23.36 11.944C24.384 13.6293 24.896 15.5813 24.896 17.8C24.896 20.0187 24.384 21.9707 23.36 23.656C22.3573 25.3413 20.9387 26.6533 19.104 27.592C17.2907 28.5307 15.1893 29 12.8 29H3.36ZM6.56 26.216H12.608C14.464 26.216 16.064 25.864 17.408 25.16C18.7733 24.456 19.8293 23.4747 20.576 22.216C21.3227 20.936 21.696 19.464 21.696 17.8C21.696 16.1147 21.3227 14.6427 20.576 13.384C19.8293 12.1253 18.7733 11.144 17.408 10.44C16.064 9.736 14.464 9.384 12.608 9.384H6.56V26.216ZM29.4995 29V12.04H32.4435V16.648L32.1555 15.496C32.6248 14.3227 33.4142 13.4267 34.5235 12.808C35.6328 12.1893 36.9982 11.88 38.6195 11.88V14.856C38.4915 14.8347 38.3635 14.824 38.2355 14.824C38.1288 14.824 38.0222 14.824 37.9155 14.824C36.2728 14.824 34.9715 15.3147 34.0115 16.296C33.0515 17.2773 32.5715 18.696 32.5715 20.552V29H29.4995ZM43.198 29.192C42.6007 29.192 42.0887 28.9893 41.662 28.584C41.2353 28.1573 41.022 27.624 41.022 26.984C41.022 26.344 41.2353 25.8213 41.662 25.416C42.0887 25.0107 42.6007 24.808 43.198 24.808C43.774 24.808 44.2647 25.0107 44.67 25.416C45.0967 25.8213 45.31 26.344 45.31 26.984C45.31 27.624 45.0967 28.1573 44.67 28.584C44.2647 28.9893 43.774 29.192 43.198 29.192ZM59.0537 29V6.6H62.2537V29H59.0537ZM68.662 29V5.256H71.734V29H68.662ZM88.2775 29V25.416L88.1175 24.744V18.632C88.1175 17.3307 87.7335 16.328 86.9655 15.624C86.2188 14.8987 85.0882 14.536 83.5735 14.536C82.5708 14.536 81.5895 14.7067 80.6295 15.048C79.6695 15.368 78.8588 15.8053 78.1975 16.36L76.9175 14.056C77.7922 13.352 78.8375 12.8187 80.0535 12.456C81.2908 12.072 82.5815 11.88 83.9255 11.88C86.2508 11.88 88.0428 12.4453 89.3015 13.576C90.5602 14.7067 91.1895 16.4347 91.1895 18.76V29H88.2775ZM82.7095 29.192C81.4508 29.192 80.3415 28.9787 79.3815 28.552C78.4428 28.1253 77.7175 27.5387 77.2055 26.792C76.6935 26.024 76.4375 25.16 76.4375 24.2C76.4375 23.2827 76.6508 22.4507 77.0775 21.704C77.5255 20.9573 78.2402 20.36 79.2215 19.912C80.2242 19.464 81.5682 19.24 83.2535 19.24H88.6295V21.448H83.3815C81.8455 21.448 80.8108 21.704 80.2775 22.216C79.7442 22.728 79.4775 23.3467 79.4775 24.072C79.4775 24.904 79.8082 25.576 80.4695 26.088C81.1308 26.5787 82.0482 26.824 83.2215 26.824C84.3735 26.824 85.3762 26.568 86.2295 26.056C87.1042 25.544 87.7335 24.7973 88.1175 23.816L88.7255 25.928C88.3202 26.9307 87.6055 27.7307 86.5815 28.328C85.5575 28.904 84.2668 29.192 82.7095 29.192ZM106.081 11.88C107.467 11.88 108.683 12.1467 109.729 12.68C110.795 13.2133 111.627 14.024 112.225 15.112C112.822 16.2 113.121 17.576 113.121 19.24V29H110.049V19.592C110.049 17.9493 109.643 16.712 108.833 15.88C108.043 15.048 106.923 14.632 105.473 14.632C104.385 14.632 103.435 14.8453 102.625 15.272C101.814 15.6987 101.185 16.328 100.737 17.16C100.31 17.992 100.097 19.0267 100.097 20.264V29H97.0245V12.04H99.9685V16.616L99.4885 15.4C100.043 14.2907 100.897 13.4267 102.049 12.808C103.201 12.1893 104.545 11.88 106.081 11.88ZM134.675 29.256C132.969 29.256 131.337 29 129.779 28.488C128.222 27.9547 126.995 27.272 126.099 26.44L127.283 23.944C128.137 24.6907 129.225 25.3093 130.547 25.8C131.87 26.2907 133.246 26.536 134.675 26.536C135.977 26.536 137.033 26.3867 137.843 26.088C138.654 25.7893 139.251 25.384 139.635 24.872C140.019 24.3387 140.211 23.7413 140.211 23.08C140.211 22.312 139.955 21.6933 139.443 21.224C138.953 20.7547 138.302 20.3813 137.491 20.104C136.702 19.8053 135.827 19.5493 134.867 19.336C133.907 19.1227 132.937 18.8773 131.955 18.6C130.995 18.3013 130.11 17.928 129.299 17.48C128.51 17.032 127.87 16.4347 127.379 15.688C126.889 14.92 126.643 13.9387 126.643 12.744C126.643 11.592 126.942 10.536 127.539 9.576C128.158 8.59466 129.097 7.816 130.355 7.24C131.635 6.64267 133.257 6.344 135.219 6.344C136.521 6.344 137.811 6.51467 139.091 6.856C140.371 7.19733 141.481 7.688 142.419 8.328L141.363 10.888C140.403 10.248 139.39 9.78933 138.323 9.512C137.257 9.21333 136.222 9.064 135.219 9.064C133.961 9.064 132.926 9.224 132.115 9.544C131.305 9.864 130.707 10.2907 130.323 10.824C129.961 11.3573 129.779 11.9547 129.779 12.616C129.779 13.4053 130.025 14.0347 130.515 14.504C131.027 14.9733 131.678 15.3467 132.467 15.624C133.278 15.9013 134.163 16.1573 135.123 16.392C136.083 16.6053 137.043 16.8507 138.003 17.128C138.985 17.4053 139.87 17.768 140.659 18.216C141.47 18.664 142.121 19.2613 142.611 20.008C143.102 20.7547 143.347 21.7147 143.347 22.888C143.347 24.0187 143.038 25.0747 142.419 26.056C141.801 27.016 140.841 27.7947 139.539 28.392C138.259 28.968 136.638 29.256 134.675 29.256ZM155.277 29.192C153.463 29.192 151.863 28.8187 150.477 28.072C149.111 27.3253 148.045 26.3013 147.277 25C146.53 23.6987 146.157 22.2053 146.157 20.52C146.157 18.8347 146.519 17.3413 147.245 16.04C147.991 14.7387 149.005 13.7253 150.285 13C151.586 12.2533 153.047 11.88 154.669 11.88C156.311 11.88 157.762 12.2427 159.021 12.968C160.279 13.6933 161.261 14.7173 161.965 16.04C162.69 17.3413 163.053 18.8667 163.053 20.616C163.053 20.744 163.042 20.8933 163.021 21.064C163.021 21.2347 163.01 21.3947 162.989 21.544H148.557V19.336H161.389L160.141 20.104C160.162 19.016 159.938 18.0453 159.469 17.192C158.999 16.3387 158.349 15.6773 157.517 15.208C156.706 14.7173 155.757 14.472 154.669 14.472C153.602 14.472 152.653 14.7173 151.821 15.208C150.989 15.6773 150.338 16.3493 149.869 17.224C149.399 18.0773 149.165 19.0587 149.165 20.168V20.68C149.165 21.8107 149.421 22.824 149.933 23.72C150.466 24.5947 151.202 25.2773 152.141 25.768C153.079 26.2587 154.157 26.504 155.373 26.504C156.375 26.504 157.282 26.3333 158.093 25.992C158.925 25.6507 159.65 25.1387 160.269 24.456L161.965 26.44C161.197 27.336 160.237 28.0187 159.085 28.488C157.954 28.9573 156.685 29.192 155.277 29.192ZM188.684 11.88C190.05 11.88 191.255 12.1467 192.3 12.68C193.346 13.2133 194.156 14.024 194.732 15.112C195.33 16.2 195.628 17.576 195.628 19.24V29H192.556V19.592C192.556 17.9493 192.172 16.712 191.404 15.88C190.636 15.048 189.559 14.632 188.172 14.632C187.148 14.632 186.252 14.8453 185.484 15.272C184.716 15.6987 184.119 16.328 183.692 17.16C183.287 17.992 183.084 19.0267 183.084 20.264V29H180.012V19.592C180.012 17.9493 179.628 16.712 178.86 15.88C178.114 15.048 177.036 14.632 175.628 14.632C174.626 14.632 173.74 14.8453 172.972 15.272C172.204 15.6987 171.607 16.328 171.18 17.16C170.754 17.992 170.54 19.0267 170.54 20.264V29H167.468V12.04H170.412V16.552L169.932 15.4C170.466 14.2907 171.287 13.4267 172.396 12.808C173.506 12.1893 174.796 11.88 176.268 11.88C177.89 11.88 179.287 12.2853 180.46 13.096C181.634 13.8853 182.402 15.0907 182.764 16.712L181.516 16.2C182.028 14.8987 182.924 13.8533 184.204 13.064C185.484 12.2747 186.978 11.88 188.684 11.88ZM211.959 29V25.416L211.799 24.744V18.632C211.799 17.3307 211.415 16.328 210.647 15.624C209.9 14.8987 208.769 14.536 207.255 14.536C206.252 14.536 205.271 14.7067 204.311 15.048C203.351 15.368 202.54 15.8053 201.879 16.36L200.599 14.056C201.473 13.352 202.519 12.8187 203.735 12.456C204.972 12.072 206.263 11.88 207.607 11.88C209.932 11.88 211.724 12.4453 212.983 13.576C214.241 14.7067 214.871 16.4347 214.871 18.76V29H211.959ZM206.391 29.192C205.132 29.192 204.023 28.9787 203.063 28.552C202.124 28.1253 201.399 27.5387 200.887 26.792C200.375 26.024 200.119 25.16 200.119 24.2C200.119 23.2827 200.332 22.4507 200.759 21.704C201.207 20.9573 201.921 20.36 202.903 19.912C203.905 19.464 205.249 19.24 206.935 19.24H212.311V21.448H207.063C205.527 21.448 204.492 21.704 203.959 22.216C203.425 22.728 203.159 23.3467 203.159 24.072C203.159 24.904 203.489 25.576 204.151 26.088C204.812 26.5787 205.729 26.824 206.903 26.824C208.055 26.824 209.057 26.568 209.911 26.056C210.785 25.544 211.415 24.7973 211.799 23.816L212.407 25.928C212.001 26.9307 211.287 27.7307 210.263 28.328C209.239 28.904 207.948 29.192 206.391 29.192ZM229.762 11.88C231.148 11.88 232.364 12.1467 233.41 12.68C234.476 13.2133 235.308 14.024 235.906 15.112C236.503 16.2 236.802 17.576 236.802 19.24V29H233.73V19.592C233.73 17.9493 233.324 16.712 232.514 15.88C231.724 15.048 230.604 14.632 229.154 14.632C228.066 14.632 227.116 14.8453 226.306 15.272C225.495 15.6987 224.866 16.328 224.418 17.16C223.991 17.992 223.778 19.0267 223.778 20.264V29H220.706V12.04H223.65V16.616L223.17 15.4C223.724 14.2907 224.578 13.4267 225.73 12.808C226.882 12.1893 228.226 11.88 229.762 11.88ZM249.645 29.192C248.002 29.192 246.53 28.8293 245.229 28.104C243.949 27.3787 242.936 26.3653 242.189 25.064C241.442 23.7627 241.069 22.248 241.069 20.52C241.069 18.792 241.442 17.288 242.189 16.008C242.936 14.7067 243.949 13.6933 245.229 12.968C246.53 12.2427 248.002 11.88 249.645 11.88C251.074 11.88 252.365 12.2 253.517 12.84C254.669 13.48 255.586 14.44 256.269 15.72C256.973 17 257.325 18.6 257.325 20.52C257.325 22.44 256.984 24.04 256.301 25.32C255.64 26.6 254.733 27.5707 253.581 28.232C252.429 28.872 251.117 29.192 249.645 29.192ZM249.901 26.504C250.968 26.504 251.928 26.2587 252.781 25.768C253.656 25.2773 254.338 24.584 254.829 23.688C255.341 22.7707 255.597 21.7147 255.597 20.52C255.597 19.304 255.341 18.2587 254.829 17.384C254.338 16.488 253.656 15.7947 252.781 15.304C251.928 14.8133 250.968 14.568 249.901 14.568C248.813 14.568 247.842 14.8133 246.989 15.304C246.136 15.7947 245.453 16.488 244.941 17.384C244.429 18.2587 244.173 19.304 244.173 20.52C244.173 21.7147 244.429 22.7707 244.941 23.688C245.453 24.584 246.136 25.2773 246.989 25.768C247.842 26.2587 248.813 26.504 249.901 26.504ZM255.693 29V24.424L255.885 20.488L255.565 16.552V5.256H258.637V29H255.693ZM271.864 29.192C270.157 29.192 268.642 28.8187 267.32 28.072C265.997 27.3253 264.952 26.3013 264.184 25C263.416 23.6773 263.032 22.184 263.032 20.52C263.032 18.8347 263.416 17.3413 264.184 16.04C264.952 14.7387 265.997 13.7253 267.32 13C268.642 12.2533 270.157 11.88 271.864 11.88C273.549 11.88 275.053 12.2533 276.376 13C277.72 13.7253 278.765 14.7387 279.512 16.04C280.28 17.32 280.664 18.8133 280.664 20.52C280.664 22.2053 280.28 23.6987 279.512 25C278.765 26.3013 277.72 27.3253 276.376 28.072C275.053 28.8187 273.549 29.192 271.864 29.192ZM271.864 26.504C272.952 26.504 273.922 26.2587 274.776 25.768C275.65 25.2773 276.333 24.584 276.824 23.688C277.314 22.7707 277.56 21.7147 277.56 20.52C277.56 19.304 277.314 18.2587 276.824 17.384C276.333 16.488 275.65 15.7947 274.776 15.304C273.922 14.8133 272.952 14.568 271.864 14.568C270.776 14.568 269.805 14.8133 268.952 15.304C268.098 15.7947 267.416 16.488 266.904 17.384C266.392 18.2587 266.136 19.304 266.136 20.52C266.136 21.7147 266.392 22.7707 266.904 23.688C267.416 24.584 268.098 25.2773 268.952 25.768C269.805 26.2587 270.776 26.504 271.864 26.504ZM289.041 29L281.617 12.04H284.817L291.409 27.4H289.873L296.593 12.04H299.601L292.177 29H289.041Z" fill="black" fill-opacity="0.87"/>
<path d="M320 27.5V10.6111C320 10.0512 320.211 9.51424 320.586 9.11833C320.961 8.72242 321.47 8.5 322 8.5H332C332.53 8.5 333.039 8.72242 333.414 9.11833C333.789 9.51424 334 10.0512 334 10.6111V27.5L328.082 23.4836C327.759 23.2645 327.384 23.148 327 23.148C326.616 23.148 326.241 23.2645 325.918 23.4836L320 27.5Z" stroke="black" stroke-width="1.5" stroke-linecap="round" stroke-linejoin="round"/>
</svg>
