<svg width="243" height="52" viewBox="0 0 243 52" fill="none" xmlns="http://www.w3.org/2000/svg">
<path d="M25.4532 15.6747V12.9571C25.4532 12.7216 25.1825 12.5915 24.9997 12.7356L9.15122 25.1141C9.01657 25.2189 8.90761 25.353 8.83266 25.5062C8.75771 25.6594 8.71875 25.8277 8.71875 25.9983C8.71875 26.1689 8.75771 26.3372 8.83266 26.4905C8.90761 26.6437 9.01657 26.7778 9.15122 26.8825L24.9997 39.261C25.186 39.4052 25.4532 39.2751 25.4532 39.0395V36.322C25.4532 36.1497 25.3723 35.9845 25.2387 35.879L12.5825 26.0001L25.2387 16.1177C25.3723 16.0122 25.4532 15.847 25.4532 15.6747Z" fill="black"/>
<path d="M67.8 25.24H82.24V28.68H67.8V25.24ZM68.2 40H64.2V12H83.96V15.48H68.2V40ZM101.409 40V35.52L101.209 34.68V27.04C101.209 25.4133 100.729 24.16 99.7694 23.28C98.836 22.3733 97.4227 21.92 95.5294 21.92C94.276 21.92 93.0494 22.1333 91.8494 22.56C90.6494 22.96 89.636 23.5067 88.8094 24.2L87.2094 21.32C88.3027 20.44 89.6094 19.7733 91.1294 19.32C92.676 18.84 94.2894 18.6 95.9694 18.6C98.876 18.6 101.116 19.3067 102.689 20.72C104.263 22.1333 105.049 24.2933 105.049 27.2V40H101.409ZM94.4494 40.24C92.876 40.24 91.4894 39.9733 90.2894 39.44C89.116 38.9067 88.2094 38.1733 87.5694 37.24C86.9294 36.28 86.6094 35.2 86.6094 34C86.6094 32.8533 86.876 31.8133 87.4094 30.88C87.9694 29.9467 88.8627 29.2 90.0894 28.64C91.3427 28.08 93.0227 27.8 95.1294 27.8H101.849V30.56H95.2894C93.3694 30.56 92.076 30.88 91.4094 31.52C90.7427 32.16 90.4094 32.9333 90.4094 33.84C90.4094 34.88 90.8227 35.72 91.6494 36.36C92.476 36.9733 93.6227 37.28 95.0894 37.28C96.5294 37.28 97.7827 36.96 98.8494 36.32C99.9427 35.68 100.729 34.7467 101.209 33.52L101.969 36.16C101.463 37.4133 100.569 38.4133 99.2894 39.16C98.0094 39.88 96.396 40.24 94.4494 40.24ZM117.325 40L108.045 18.8H112.045L120.285 38H118.365L126.765 18.8H130.525L121.245 40H117.325ZM142.603 40.24C140.469 40.24 138.576 39.7733 136.923 38.84C135.269 37.9067 133.963 36.6267 133.003 35C132.043 33.3467 131.563 31.48 131.563 29.4C131.563 27.2933 132.043 25.4267 133.003 23.8C133.963 22.1733 135.269 20.9067 136.923 20C138.576 19.0667 140.469 18.6 142.603 18.6C144.709 18.6 146.589 19.0667 148.243 20C149.923 20.9067 151.229 22.1733 152.163 23.8C153.123 25.4 153.603 27.2667 153.603 29.4C153.603 31.5067 153.123 33.3733 152.163 35C151.229 36.6267 149.923 37.9067 148.243 38.84C146.589 39.7733 144.709 40.24 142.603 40.24ZM142.603 36.88C143.963 36.88 145.176 36.5733 146.243 35.96C147.336 35.3467 148.189 34.48 148.803 33.36C149.416 32.2133 149.723 30.8933 149.723 29.4C149.723 27.88 149.416 26.5733 148.803 25.48C148.189 24.36 147.336 23.4933 146.243 22.88C145.176 22.2667 143.963 21.96 142.603 21.96C141.243 21.96 140.029 22.2667 138.963 22.88C137.896 23.4933 137.043 24.36 136.403 25.48C135.763 26.5733 135.443 27.88 135.443 29.4C135.443 30.8933 135.763 32.2133 136.403 33.36C137.043 34.48 137.896 35.3467 138.963 35.96C140.029 36.5733 141.243 36.88 142.603 36.88ZM158.913 40V18.8H162.593V24.56L162.233 23.12C162.82 21.6533 163.807 20.5333 165.193 19.76C166.58 18.9867 168.287 18.6 170.313 18.6V22.32C170.153 22.2933 169.993 22.28 169.833 22.28C169.7 22.28 169.567 22.28 169.433 22.28C167.38 22.28 165.753 22.8933 164.553 24.12C163.353 25.3467 162.753 27.12 162.753 29.44V40H158.913ZM175.046 40V18.8H178.886V40H175.046ZM176.966 14.72C176.22 14.72 175.593 14.48 175.086 14C174.606 13.52 174.366 12.9333 174.366 12.24C174.366 11.52 174.606 10.92 175.086 10.44C175.593 9.96 176.22 9.72 176.966 9.72C177.713 9.72 178.326 9.96 178.806 10.44C179.313 10.8933 179.566 11.4667 179.566 12.16C179.566 12.88 179.326 13.4933 178.846 14C178.366 14.48 177.74 14.72 176.966 14.72ZM193.498 40.24C191.365 40.24 189.711 39.6667 188.538 38.52C187.365 37.3733 186.778 35.7333 186.778 33.6V14.16H190.618V33.44C190.618 34.5867 190.898 35.4667 191.458 36.08C192.045 36.6933 192.871 37 193.938 37C195.138 37 196.138 36.6667 196.938 36L198.138 38.76C197.551 39.2667 196.845 39.64 196.018 39.88C195.218 40.12 194.378 40.24 193.498 40.24ZM183.178 21.96V18.8H196.698V21.96H183.178ZM211.518 40.24C209.251 40.24 207.251 39.7733 205.518 38.84C203.811 37.9067 202.478 36.6267 201.518 35C200.584 33.3733 200.118 31.5067 200.118 29.4C200.118 27.2933 200.571 25.4267 201.478 23.8C202.411 22.1733 203.678 20.9067 205.278 20C206.904 19.0667 208.731 18.6 210.758 18.6C212.811 18.6 214.624 19.0533 216.198 19.96C217.771 20.8667 218.998 22.1467 219.878 23.8C220.784 25.4267 221.238 27.3333 221.238 29.52C221.238 29.68 221.224 29.8667 221.198 30.08C221.198 30.2933 221.184 30.4933 221.158 30.68H203.118V27.92H219.158L217.598 28.88C217.624 27.52 217.344 26.3067 216.758 25.24C216.171 24.1733 215.358 23.3467 214.318 22.76C213.304 22.1467 212.118 21.84 210.758 21.84C209.424 21.84 208.238 22.1467 207.198 22.76C206.158 23.3467 205.344 24.1867 204.758 25.28C204.171 26.3467 203.878 27.5733 203.878 28.96V29.6C203.878 31.0133 204.198 32.28 204.838 33.4C205.504 34.4933 206.424 35.3467 207.598 35.96C208.771 36.5733 210.118 36.88 211.638 36.88C212.891 36.88 214.024 36.6667 215.038 36.24C216.078 35.8133 216.984 35.1733 217.758 34.32L219.878 36.8C218.918 37.92 217.718 38.7733 216.278 39.36C214.864 39.9467 213.278 40.24 211.518 40.24ZM232.65 40.24C230.89 40.24 229.21 40 227.61 39.52C226.036 39.04 224.796 38.4533 223.89 37.76L225.49 34.72C226.396 35.3333 227.516 35.8533 228.85 36.28C230.183 36.7067 231.543 36.92 232.93 36.92C234.716 36.92 235.996 36.6667 236.77 36.16C237.57 35.6533 237.97 34.9467 237.97 34.04C237.97 33.3733 237.73 32.8533 237.25 32.48C236.77 32.1067 236.13 31.8267 235.33 31.64C234.556 31.4533 233.69 31.2933 232.73 31.16C231.77 31 230.81 30.8133 229.85 30.6C228.89 30.36 228.01 30.04 227.21 29.64C226.41 29.2133 225.77 28.64 225.29 27.92C224.81 27.1733 224.57 26.1867 224.57 24.96C224.57 23.68 224.93 22.56 225.65 21.6C226.37 20.64 227.383 19.9067 228.69 19.4C230.023 18.8667 231.596 18.6 233.41 18.6C234.796 18.6 236.196 18.7733 237.61 19.12C239.05 19.44 240.223 19.9067 241.13 20.52L239.49 23.56C238.53 22.92 237.53 22.48 236.49 22.24C235.45 22 234.41 21.88 233.37 21.88C231.69 21.88 230.436 22.16 229.61 22.72C228.783 23.2533 228.37 23.9467 228.37 24.8C228.37 25.52 228.61 26.08 229.09 26.48C229.596 26.8533 230.236 27.1467 231.01 27.36C231.81 27.5733 232.69 27.76 233.65 27.92C234.61 28.0533 235.57 28.24 236.53 28.48C237.49 28.6933 238.356 29 239.13 29.4C239.93 29.8 240.57 30.36 241.05 31.08C241.556 31.8 241.81 32.76 241.81 33.96C241.81 35.24 241.436 36.3467 240.69 37.28C239.943 38.2133 238.89 38.9467 237.53 39.48C236.17 39.9867 234.543 40.24 232.65 40.24Z" fill="black"/>
</svg>
