<svg width="79" height="50" viewBox="0 0 79 50" fill="none" xmlns="http://www.w3.org/2000/svg">
<path d="M39.5 3.75C36.6095 3.75 34.25 6.1095 34.25 9C34.25 10.8075 35.1725 12.414 36.5705 13.3597C33.8952 14.5072 32 17.16 32 20.25H33.5C33.5 16.9275 36.1775 14.25 39.5 14.25C42.8225 14.25 45.5 16.9275 45.5 20.25H47C47 17.16 45.1047 14.5065 42.4295 13.359C43.1432 12.8775 43.7279 12.2284 44.1325 11.4684C44.537 10.7085 44.7491 9.86092 44.75 9C44.75 6.1095 42.3905 3.75 39.5 3.75ZM39.5 5.25C41.5798 5.25 43.25 6.92025 43.25 9C43.25 11.0798 41.5798 12.75 39.5 12.75C37.4202 12.75 35.75 11.0798 35.75 9C35.75 6.92025 37.4202 5.25 39.5 5.25Z" fill="black"/>
<path d="M16.8778 46V34.3636H20.8097C21.7225 34.3636 22.4688 34.5284 23.0483 34.858C23.6316 35.1837 24.0634 35.625 24.3438 36.1818C24.6241 36.7386 24.7642 37.3598 24.7642 38.0455C24.7642 38.7311 24.6241 39.3542 24.3438 39.9148C24.0672 40.4754 23.6392 40.9223 23.0597 41.2557C22.4801 41.5852 21.7377 41.75 20.8324 41.75H18.0142V40.5H20.7869C21.4119 40.5 21.9138 40.392 22.2926 40.1761C22.6714 39.9602 22.946 39.6686 23.1165 39.3011C23.2907 38.9299 23.3778 38.5114 23.3778 38.0455C23.3778 37.5795 23.2907 37.1629 23.1165 36.7955C22.946 36.428 22.6695 36.1402 22.2869 35.9318C21.9044 35.7197 21.3968 35.6136 20.7642 35.6136H18.2869V46H16.8778ZM26.8523 46V37.2727H28.1477V38.5909H28.2386C28.3977 38.1591 28.6856 37.8087 29.1023 37.5398C29.5189 37.2708 29.9886 37.1364 30.5114 37.1364C30.6098 37.1364 30.733 37.1383 30.8807 37.142C31.0284 37.1458 31.1402 37.1515 31.2159 37.1591V38.5227C31.1705 38.5114 31.0663 38.4943 30.9034 38.4716C30.7443 38.4451 30.5758 38.4318 30.3977 38.4318C29.9735 38.4318 29.5947 38.5208 29.2614 38.6989C28.9318 38.8731 28.6705 39.1155 28.4773 39.4261C28.2879 39.733 28.1932 40.0833 28.1932 40.4773V46H26.8523ZM36.0852 46.1818C35.2973 46.1818 34.6061 45.9943 34.0114 45.6193C33.4205 45.2443 32.9583 44.7197 32.625 44.0455C32.2955 43.3712 32.1307 42.5833 32.1307 41.6818C32.1307 40.7727 32.2955 39.9792 32.625 39.3011C32.9583 38.6231 33.4205 38.0966 34.0114 37.7216C34.6061 37.3466 35.2973 37.1591 36.0852 37.1591C36.8731 37.1591 37.5625 37.3466 38.1534 37.7216C38.7481 38.0966 39.2102 38.6231 39.5398 39.3011C39.8731 39.9792 40.0398 40.7727 40.0398 41.6818C40.0398 42.5833 39.8731 43.3712 39.5398 44.0455C39.2102 44.7197 38.7481 45.2443 38.1534 45.6193C37.5625 45.9943 36.8731 46.1818 36.0852 46.1818ZM36.0852 44.9773C36.6837 44.9773 37.1761 44.8239 37.5625 44.517C37.9489 44.2102 38.2348 43.8068 38.4205 43.3068C38.6061 42.8068 38.6989 42.2652 38.6989 41.6818C38.6989 41.0985 38.6061 40.5549 38.4205 40.0511C38.2348 39.5473 37.9489 39.1402 37.5625 38.8295C37.1761 38.5189 36.6837 38.3636 36.0852 38.3636C35.4867 38.3636 34.9943 38.5189 34.608 38.8295C34.2216 39.1402 33.9356 39.5473 33.75 40.0511C33.5644 40.5549 33.4716 41.0985 33.4716 41.6818C33.4716 42.2652 33.5644 42.8068 33.75 43.3068C33.9356 43.8068 34.2216 44.2102 34.608 44.517C34.9943 44.8239 35.4867 44.9773 36.0852 44.9773ZM45.973 37.2727V38.4091H41.2685V37.2727H45.973ZM42.6776 46V36.0682C42.6776 35.5682 42.795 35.1515 43.0298 34.8182C43.2647 34.4848 43.5696 34.2348 43.9446 34.0682C44.3196 33.9015 44.7154 33.8182 45.1321 33.8182C45.4616 33.8182 45.7306 33.8447 45.9389 33.8977C46.1473 33.9508 46.3026 34 46.4048 34.0455L46.0185 35.2045C45.9503 35.1818 45.8556 35.1534 45.7344 35.1193C45.617 35.0852 45.4616 35.0682 45.2685 35.0682C44.8253 35.0682 44.5052 35.1799 44.3082 35.4034C44.1151 35.6269 44.0185 35.9545 44.0185 36.3864V46H42.6776ZM47.8523 46V37.2727H49.1932V46H47.8523ZM48.5341 35.8182C48.2727 35.8182 48.0473 35.7292 47.858 35.5511C47.6723 35.3731 47.5795 35.1591 47.5795 34.9091C47.5795 34.6591 47.6723 34.4451 47.858 34.267C48.0473 34.089 48.2727 34 48.5341 34C48.7955 34 49.0189 34.089 49.2045 34.267C49.3939 34.4451 49.4886 34.6591 49.4886 34.9091C49.4886 35.1591 49.3939 35.3731 49.2045 35.5511C49.0189 35.7292 48.7955 35.8182 48.5341 35.8182ZM52.9901 34.3636V46H51.6491V34.3636H52.9901ZM59.1051 46.1818C58.2642 46.1818 57.5388 45.9962 56.929 45.625C56.3229 45.25 55.8551 44.7273 55.5256 44.0568C55.1998 43.3826 55.0369 42.5985 55.0369 41.7045C55.0369 40.8106 55.1998 40.0227 55.5256 39.3409C55.8551 38.6553 56.3134 38.1212 56.9006 37.7386C57.4915 37.3523 58.1809 37.1591 58.9688 37.1591C59.4233 37.1591 59.8722 37.2348 60.3153 37.3864C60.7585 37.5379 61.1619 37.7841 61.5256 38.125C61.8892 38.4621 62.179 38.9091 62.3949 39.4659C62.6108 40.0227 62.7188 40.7083 62.7188 41.5227V42.0909H55.9915V40.9318H61.3551C61.3551 40.4394 61.2566 40 61.0597 39.6136C60.8665 39.2273 60.59 38.9223 60.2301 38.6989C59.8741 38.4754 59.4536 38.3636 58.9688 38.3636C58.4347 38.3636 57.9725 38.4962 57.5824 38.7614C57.196 39.0227 56.8987 39.3636 56.6903 39.7841C56.482 40.2045 56.3778 40.6553 56.3778 41.1364V41.9091C56.3778 42.5682 56.4915 43.1269 56.7188 43.5852C56.9498 44.0398 57.2699 44.3864 57.679 44.625C58.0881 44.8598 58.5634 44.9773 59.1051 44.9773C59.4574 44.9773 59.7756 44.928 60.0597 44.8295C60.3475 44.7273 60.5956 44.5758 60.804 44.375C61.0123 44.1705 61.1733 43.9167 61.2869 43.6136L62.5824 43.9773C62.446 44.4167 62.2169 44.803 61.8949 45.1364C61.5729 45.4659 61.1752 45.7235 60.7017 45.9091C60.2282 46.0909 59.696 46.1818 59.1051 46.1818Z" fill="black"/>
</svg>
