<svg width="101" height="25" viewBox="0 0 101 25" fill="none" xmlns="http://www.w3.org/2000/svg">
<path d="M12 11C16.3392 11 18.9508 7.29576 19.4529 7.46485C19.4762 7.47271 19.4651 7.49999 19.4405 7.49999H4.57699C4.54964 7.49999 4.54256 7.47466 4.56991 7.4747C5.14861 7.47543 7.70711 11 12 11ZM12 11V11.5M12 21H16M12 21H8M12 21L12 19M12 14V16.5" stroke="#0094FF" stroke-linecap="round"/>
<path d="M9.5 19.0001C10 17.5001 14.5 18.0001 14.5 16.5001C14.5 16.009 14.0292 15.746 13.341 15.585M11.6046 4.50006H10.6442C10.5581 4.50006 10.4816 4.55515 10.4544 4.63682L10.0316 5.90519C10.0186 5.94428 10.0558 5.98147 10.0949 5.96844L11.3777 5.54081C11.4522 5.516 11.5052 5.44994 11.5134 5.37189L11.6046 4.50006ZM11.6046 4.50006C13.4345 3.27687 15.5538 4.28469 16.5 5.86549M10.5677 15.2501C9.19933 15.1048 8.5 14.5001 8.5 14.0001C8.5 12.5415 14.5518 12.9666 15.8749 11.6507" stroke="#0094FF" stroke-linecap="round"/>
<path d="M29.692 18.5V5.9H31.618L39.52 15.602H38.566V5.9H40.888V18.5H38.962L31.06 8.798H32.014V18.5H29.692ZM48.1163 18.626C47.3003 18.626 46.5803 18.476 45.9563 18.176C45.3323 17.864 44.8463 17.396 44.4983 16.772C44.1503 16.136 43.9763 15.338 43.9763 14.378V8.888H46.2263V14.072C46.2263 14.936 46.4183 15.584 46.8023 16.016C47.1983 16.436 47.7563 16.646 48.4763 16.646C49.0043 16.646 49.4603 16.538 49.8443 16.322C50.2403 16.106 50.5463 15.782 50.7623 15.35C50.9903 14.918 51.1043 14.384 51.1043 13.748V8.888H53.3543V18.5H51.2123V15.908L51.5903 16.7C51.2663 17.324 50.7923 17.804 50.1683 18.14C49.5443 18.464 48.8603 18.626 48.1163 18.626ZM56.3002 18.5V8.888H58.4422V11.534L58.1902 10.76C58.4782 10.112 58.9282 9.62 59.5402 9.284C60.1642 8.948 60.9382 8.78 61.8622 8.78V10.922C61.7662 10.898 61.6762 10.886 61.5922 10.886C61.5082 10.874 61.4242 10.868 61.3402 10.868C60.4882 10.868 59.8102 11.12 59.3062 11.624C58.8022 12.116 58.5502 12.854 58.5502 13.838V18.5H56.3002ZM69.0074 18.5V16.556L68.8814 16.142V12.74C68.8814 12.08 68.6834 11.57 68.2874 11.21C67.8914 10.838 67.2914 10.652 66.4874 10.652C65.9474 10.652 65.4134 10.736 64.8854 10.904C64.3694 11.072 63.9314 11.306 63.5714 11.606L62.6894 9.968C63.2054 9.572 63.8174 9.278 64.5254 9.086C65.2454 8.882 65.9894 8.78 66.7574 8.78C68.1494 8.78 69.2234 9.116 69.9794 9.788C70.7474 10.448 71.1314 11.474 71.1314 12.866V18.5H69.0074ZM65.9834 18.626C65.2634 18.626 64.6334 18.506 64.0934 18.266C63.5534 18.014 63.1334 17.672 62.8334 17.24C62.5454 16.796 62.4014 16.298 62.4014 15.746C62.4014 15.206 62.5274 14.72 62.7794 14.288C63.0434 13.856 63.4694 13.514 64.0574 13.262C64.6454 13.01 65.4254 12.884 66.3974 12.884H69.1874V14.378H66.5594C65.7914 14.378 65.2754 14.504 65.0114 14.756C64.7474 14.996 64.6154 15.296 64.6154 15.656C64.6154 16.064 64.7774 16.388 65.1014 16.628C65.4254 16.868 65.8754 16.988 66.4514 16.988C67.0034 16.988 67.4954 16.862 67.9274 16.61C68.3714 16.358 68.6894 15.986 68.8814 15.494L69.2594 16.844C69.0434 17.408 68.6534 17.846 68.0894 18.158C67.5374 18.47 66.8354 18.626 65.9834 18.626ZM74.325 18.5V8.348C74.325 7.34 74.619 6.536 75.207 5.936C75.807 5.324 76.659 5.018 77.763 5.018C78.159 5.018 78.531 5.06 78.879 5.144C79.239 5.228 79.539 5.36 79.779 5.54L79.167 7.232C78.999 7.1 78.807 7.004 78.591 6.944C78.375 6.872 78.153 6.836 77.925 6.836C77.457 6.836 77.103 6.968 76.863 7.232C76.623 7.484 76.503 7.868 76.503 8.384V9.464L76.575 10.472V18.5H74.325ZM72.741 10.76V8.96H79.149V10.76H72.741ZM79.8715 18.5V17.078L85.7935 9.914L86.2075 10.688H79.9795V8.888H88.0075V10.31L82.0855 17.474L81.6355 16.7H88.1695V18.5H79.8715ZM94.423 18.626C93.439 18.626 92.563 18.416 91.795 17.996C91.027 17.564 90.421 16.976 89.977 16.232C89.533 15.488 89.311 14.642 89.311 13.694C89.311 12.734 89.533 11.888 89.977 11.156C90.421 10.412 91.027 9.83 91.795 9.41C92.563 8.99 93.439 8.78 94.423 8.78C95.419 8.78 96.301 8.99 97.069 9.41C97.849 9.83 98.455 10.406 98.887 11.138C99.331 11.87 99.553 12.722 99.553 13.694C99.553 14.642 99.331 15.488 98.887 16.232C98.455 16.976 97.849 17.564 97.069 17.996C96.301 18.416 95.419 18.626 94.423 18.626ZM94.423 16.7C94.975 16.7 95.467 16.58 95.899 16.34C96.331 16.1 96.667 15.752 96.907 15.296C97.159 14.84 97.285 14.306 97.285 13.694C97.285 13.07 97.159 12.536 96.907 12.092C96.667 11.636 96.331 11.288 95.899 11.048C95.467 10.808 94.981 10.688 94.441 10.688C93.889 10.688 93.397 10.808 92.965 11.048C92.545 11.288 92.209 11.636 91.957 12.092C91.705 12.536 91.579 13.07 91.579 13.694C91.579 14.306 91.705 14.84 91.957 15.296C92.209 15.752 92.545 16.1 92.965 16.34C93.397 16.58 93.883 16.7 94.423 16.7Z" fill="black"/>
</svg>
