<svg width="196" height="24" viewBox="0 0 196 24" fill="none" xmlns="http://www.w3.org/2000/svg">
<path d="M19.4996 17.2475C19.4996 18.3397 18.5269 19.3231 17.5692 19.715C15.3604 20.634 12.8388 19.252 11.072 17.9675C9.32793 16.6955 7.78468 15.1595 6.51265 13.415C5.23785 11.6454 3.88308 9.17156 4.77004 6.9575C5.15255 5.98673 6.08982 5 7.19618 5C8.80845 5 11.2744 8.66042 9.8777 10.055C9.50825 10.4385 9.07851 10.6985 9.26929 11.27C9.7091 12.0751 10.4199 12.7667 11.057 13.415C11.7125 14.0574 12.4 14.7739 13.2202 15.2075C13.7776 15.4301 14.0573 14.9669 14.422 14.6075C15.6772 13.3542 19.4996 15.4846 19.4996 17.2475Z" stroke="#0094FF" stroke-miterlimit="10"/>
<path d="M13.5 8C13.5 6.067 15.067 4.5 17 4.5V4.5C18.933 4.5 20.5 6.067 20.5 8V8C20.5 9.933 18.933 11.5 17 11.5H13.8333C13.6492 11.5 13.5 11.3508 13.5 11.1667V8Z" stroke="#0094FF"/>
<path d="M17 6.5V9.5M15.5 8L18.5 8" stroke="#0094FF" stroke-linecap="round"/>
<path d="M50.957 11.1357V12.665H42.1855V11.1357H50.957ZM47.3887 7.40039V16.7168H45.7627V7.40039H47.3887ZM54.5436 16.6377H54.7105C55.648 16.6377 56.4098 16.5059 56.9957 16.2422C57.5816 15.9785 58.0328 15.624 58.3492 15.1787C58.6656 14.7334 58.8824 14.2324 58.9996 13.6758C59.1168 13.1133 59.1754 12.5361 59.1754 11.9443V9.98438C59.1754 9.4043 59.108 8.88867 58.9732 8.4375C58.8443 7.98633 58.6627 7.6084 58.4283 7.30371C58.1998 6.99902 57.9391 6.76758 57.6461 6.60938C57.3531 6.45117 57.0426 6.37207 56.7145 6.37207C56.3395 6.37207 56.0025 6.44824 55.7037 6.60059C55.4107 6.74707 55.1617 6.95508 54.9566 7.22461C54.7574 7.49414 54.6051 7.81055 54.4996 8.17383C54.3941 8.53711 54.3414 8.93262 54.3414 9.36035C54.3414 9.74121 54.3883 10.1104 54.482 10.4678C54.5758 10.8252 54.7193 11.1475 54.9127 11.4346C55.1061 11.7217 55.3463 11.9502 55.6334 12.1201C55.9264 12.2842 56.2691 12.3662 56.6617 12.3662C57.025 12.3662 57.3648 12.2959 57.6812 12.1553C58.0035 12.0088 58.2877 11.8125 58.5338 11.5664C58.7857 11.3145 58.985 11.0303 59.1314 10.7139C59.2838 10.3975 59.3717 10.0664 59.3951 9.7207H60.1686C60.1686 10.207 60.0719 10.6875 59.8785 11.1621C59.691 11.6309 59.4273 12.0586 59.0875 12.4453C58.7477 12.832 58.3492 13.1426 57.8922 13.377C57.4352 13.6055 56.9371 13.7197 56.398 13.7197C55.7652 13.7197 55.2174 13.5967 54.7545 13.3506C54.2916 13.1045 53.9107 12.7764 53.6119 12.3662C53.3189 11.9561 53.0992 11.499 52.9527 10.9951C52.8121 10.4854 52.7418 9.96973 52.7418 9.44824C52.7418 8.83887 52.8268 8.26758 52.9967 7.73438C53.1666 7.20117 53.4186 6.73242 53.7525 6.32812C54.0865 5.91797 54.4996 5.59863 54.9918 5.37012C55.4898 5.1416 56.0641 5.02734 56.7145 5.02734C57.4469 5.02734 58.0709 5.17383 58.5865 5.4668C59.1021 5.75977 59.5211 6.15234 59.8434 6.64453C60.1715 7.13672 60.4117 7.69043 60.5641 8.30566C60.7164 8.9209 60.7926 9.55371 60.7926 10.2041V10.793C60.7926 11.4551 60.7486 12.1289 60.6607 12.8145C60.5787 13.4941 60.4176 14.1445 60.1773 14.7656C59.943 15.3867 59.6002 15.9434 59.149 16.4355C58.6979 16.9219 58.109 17.3086 57.3824 17.5957C56.6617 17.877 55.7711 18.0176 54.7105 18.0176H54.5436V16.6377ZM64.8186 16.6377H64.9855C65.923 16.6377 66.6848 16.5059 67.2707 16.2422C67.8566 15.9785 68.3078 15.624 68.6242 15.1787C68.9406 14.7334 69.1574 14.2324 69.2746 13.6758C69.3918 13.1133 69.4504 12.5361 69.4504 11.9443V9.98438C69.4504 9.4043 69.383 8.88867 69.2482 8.4375C69.1193 7.98633 68.9377 7.6084 68.7033 7.30371C68.4748 6.99902 68.2141 6.76758 67.9211 6.60938C67.6281 6.45117 67.3176 6.37207 66.9895 6.37207C66.6145 6.37207 66.2775 6.44824 65.9787 6.60059C65.6857 6.74707 65.4367 6.95508 65.2316 7.22461C65.0324 7.49414 64.8801 7.81055 64.7746 8.17383C64.6691 8.53711 64.6164 8.93262 64.6164 9.36035C64.6164 9.74121 64.6633 10.1104 64.757 10.4678C64.8508 10.8252 64.9943 11.1475 65.1877 11.4346C65.3811 11.7217 65.6213 11.9502 65.9084 12.1201C66.2014 12.2842 66.5441 12.3662 66.9367 12.3662C67.3 12.3662 67.6398 12.2959 67.9562 12.1553C68.2785 12.0088 68.5627 11.8125 68.8088 11.5664C69.0607 11.3145 69.26 11.0303 69.4064 10.7139C69.5588 10.3975 69.6467 10.0664 69.6701 9.7207H70.4436C70.4436 10.207 70.3469 10.6875 70.1535 11.1621C69.966 11.6309 69.7023 12.0586 69.3625 12.4453C69.0227 12.832 68.6242 13.1426 68.1672 13.377C67.7102 13.6055 67.2121 13.7197 66.673 13.7197C66.0402 13.7197 65.4924 13.5967 65.0295 13.3506C64.5666 13.1045 64.1857 12.7764 63.8869 12.3662C63.5939 11.9561 63.3742 11.499 63.2277 10.9951C63.0871 10.4854 63.0168 9.96973 63.0168 9.44824C63.0168 8.83887 63.1018 8.26758 63.2717 7.73438C63.4416 7.20117 63.6936 6.73242 64.0275 6.32812C64.3615 5.91797 64.7746 5.59863 65.2668 5.37012C65.7648 5.1416 66.3391 5.02734 66.9895 5.02734C67.7219 5.02734 68.3459 5.17383 68.8615 5.4668C69.3771 5.75977 69.7961 6.15234 70.1184 6.64453C70.4465 7.13672 70.6867 7.69043 70.8391 8.30566C70.9914 8.9209 71.0676 9.55371 71.0676 10.2041V10.793C71.0676 11.4551 71.0236 12.1289 70.9357 12.8145C70.8537 13.4941 70.6926 14.1445 70.4523 14.7656C70.218 15.3867 69.8752 15.9434 69.424 16.4355C68.9729 16.9219 68.384 17.3086 67.6574 17.5957C66.9367 17.877 66.0461 18.0176 64.9855 18.0176H64.8186V16.6377ZM81.8611 16.6641V18H73.4852V16.8311L77.6775 12.1641C78.1932 11.5898 78.5916 11.1035 78.8729 10.7051C79.16 10.3008 79.3592 9.94043 79.4705 9.62402C79.5877 9.30176 79.6463 8.97363 79.6463 8.63965C79.6463 8.21777 79.5584 7.83691 79.3826 7.49707C79.2127 7.15137 78.9607 6.87598 78.6268 6.6709C78.2928 6.46582 77.8885 6.36328 77.4139 6.36328C76.8455 6.36328 76.3709 6.47461 75.99 6.69727C75.615 6.91406 75.3338 7.21875 75.1463 7.61133C74.9588 8.00391 74.865 8.45508 74.865 8.96484H73.2391C73.2391 8.24414 73.3973 7.58496 73.7137 6.9873C74.0301 6.38965 74.4988 5.91504 75.1199 5.56348C75.741 5.20605 76.5057 5.02734 77.4139 5.02734C78.2225 5.02734 78.9139 5.1709 79.4881 5.45801C80.0623 5.73926 80.5018 6.1377 80.8064 6.65332C81.117 7.16309 81.2723 7.76074 81.2723 8.44629C81.2723 8.82129 81.2078 9.20215 81.0789 9.58887C80.9559 9.96973 80.783 10.3506 80.5604 10.7314C80.3436 11.1123 80.0887 11.4873 79.7957 11.8564C79.5086 12.2256 79.201 12.5889 78.8729 12.9463L75.4451 16.6641H81.8611ZM89.9834 16.6377H90.1504C91.0879 16.6377 91.8496 16.5059 92.4355 16.2422C93.0215 15.9785 93.4727 15.624 93.7891 15.1787C94.1055 14.7334 94.3223 14.2324 94.4395 13.6758C94.5566 13.1133 94.6152 12.5361 94.6152 11.9443V9.98438C94.6152 9.4043 94.5479 8.88867 94.4131 8.4375C94.2842 7.98633 94.1025 7.6084 93.8682 7.30371C93.6396 6.99902 93.3789 6.76758 93.0859 6.60938C92.793 6.45117 92.4824 6.37207 92.1543 6.37207C91.7793 6.37207 91.4424 6.44824 91.1436 6.60059C90.8506 6.74707 90.6016 6.95508 90.3965 7.22461C90.1973 7.49414 90.0449 7.81055 89.9395 8.17383C89.834 8.53711 89.7812 8.93262 89.7812 9.36035C89.7812 9.74121 89.8281 10.1104 89.9219 10.4678C90.0156 10.8252 90.1592 11.1475 90.3525 11.4346C90.5459 11.7217 90.7861 11.9502 91.0732 12.1201C91.3662 12.2842 91.709 12.3662 92.1016 12.3662C92.4648 12.3662 92.8047 12.2959 93.1211 12.1553C93.4434 12.0088 93.7275 11.8125 93.9736 11.5664C94.2256 11.3145 94.4248 11.0303 94.5713 10.7139C94.7236 10.3975 94.8115 10.0664 94.835 9.7207H95.6084C95.6084 10.207 95.5117 10.6875 95.3184 11.1621C95.1309 11.6309 94.8672 12.0586 94.5273 12.4453C94.1875 12.832 93.7891 13.1426 93.332 13.377C92.875 13.6055 92.377 13.7197 91.8379 13.7197C91.2051 13.7197 90.6572 13.5967 90.1943 13.3506C89.7314 13.1045 89.3506 12.7764 89.0518 12.3662C88.7588 11.9561 88.5391 11.499 88.3926 10.9951C88.252 10.4854 88.1816 9.96973 88.1816 9.44824C88.1816 8.83887 88.2666 8.26758 88.4365 7.73438C88.6064 7.20117 88.8584 6.73242 89.1924 6.32812C89.5264 5.91797 89.9395 5.59863 90.4316 5.37012C90.9297 5.1416 91.5039 5.02734 92.1543 5.02734C92.8867 5.02734 93.5107 5.17383 94.0264 5.4668C94.542 5.75977 94.9609 6.15234 95.2832 6.64453C95.6113 7.13672 95.8516 7.69043 96.0039 8.30566C96.1562 8.9209 96.2324 9.55371 96.2324 10.2041V10.793C96.2324 11.4551 96.1885 12.1289 96.1006 12.8145C96.0186 13.4941 95.8574 14.1445 95.6172 14.7656C95.3828 15.3867 95.04 15.9434 94.5889 16.4355C94.1377 16.9219 93.5488 17.3086 92.8223 17.5957C92.1016 17.877 91.2109 18.0176 90.1504 18.0176H89.9834V16.6377ZM106.674 10.582V12.5332C106.674 13.582 106.581 14.4668 106.393 15.1875C106.206 15.9082 105.936 16.4883 105.585 16.9277C105.233 17.3672 104.808 17.6865 104.31 17.8857C103.818 18.0791 103.261 18.1758 102.64 18.1758C102.148 18.1758 101.694 18.1143 101.278 17.9912C100.862 17.8682 100.487 17.6719 100.153 17.4023C99.8248 17.127 99.5436 16.7695 99.3092 16.3301C99.0748 15.8906 98.8961 15.3574 98.773 14.7305C98.65 14.1035 98.5885 13.3711 98.5885 12.5332V10.582C98.5885 9.5332 98.6822 8.6543 98.8697 7.94531C99.0631 7.23633 99.3355 6.66797 99.6871 6.24023C100.039 5.80664 100.461 5.49609 100.953 5.30859C101.451 5.12109 102.007 5.02734 102.623 5.02734C103.121 5.02734 103.578 5.08887 103.994 5.21191C104.416 5.3291 104.791 5.51953 105.119 5.7832C105.447 6.04102 105.725 6.38672 105.954 6.82031C106.188 7.24805 106.367 7.77246 106.49 8.39355C106.613 9.01465 106.674 9.74414 106.674 10.582ZM105.04 12.7969V10.3096C105.04 9.73535 105.004 9.23145 104.934 8.79785C104.87 8.3584 104.773 7.9834 104.644 7.67285C104.515 7.3623 104.351 7.11035 104.152 6.91699C103.959 6.72363 103.733 6.58301 103.475 6.49512C103.223 6.40137 102.939 6.35449 102.623 6.35449C102.236 6.35449 101.893 6.42773 101.594 6.57422C101.296 6.71484 101.044 6.94043 100.838 7.25098C100.639 7.56152 100.487 7.96875 100.381 8.47266C100.276 8.97656 100.223 9.58887 100.223 10.3096V12.7969C100.223 13.3711 100.255 13.8779 100.32 14.3174C100.39 14.7568 100.493 15.1377 100.628 15.46C100.762 15.7764 100.926 16.0371 101.12 16.2422C101.313 16.4473 101.536 16.5996 101.788 16.6992C102.046 16.793 102.33 16.8398 102.64 16.8398C103.039 16.8398 103.387 16.7637 103.686 16.6113C103.985 16.459 104.234 16.2217 104.433 15.8994C104.638 15.5713 104.791 15.1523 104.89 14.6426C104.99 14.127 105.04 13.5117 105.04 12.7969ZM116.949 10.582V12.5332C116.949 13.582 116.856 14.4668 116.668 15.1875C116.481 15.9082 116.211 16.4883 115.86 16.9277C115.508 17.3672 115.083 17.6865 114.585 17.8857C114.093 18.0791 113.536 18.1758 112.915 18.1758C112.423 18.1758 111.969 18.1143 111.553 17.9912C111.137 17.8682 110.762 17.6719 110.428 17.4023C110.1 17.127 109.819 16.7695 109.584 16.3301C109.35 15.8906 109.171 15.3574 109.048 14.7305C108.925 14.1035 108.863 13.3711 108.863 12.5332V10.582C108.863 9.5332 108.957 8.6543 109.145 7.94531C109.338 7.23633 109.611 6.66797 109.962 6.24023C110.314 5.80664 110.736 5.49609 111.228 5.30859C111.726 5.12109 112.282 5.02734 112.898 5.02734C113.396 5.02734 113.853 5.08887 114.269 5.21191C114.691 5.3291 115.066 5.51953 115.394 5.7832C115.722 6.04102 116 6.38672 116.229 6.82031C116.463 7.24805 116.642 7.77246 116.765 8.39355C116.888 9.01465 116.949 9.74414 116.949 10.582ZM115.315 12.7969V10.3096C115.315 9.73535 115.279 9.23145 115.209 8.79785C115.145 8.3584 115.048 7.9834 114.919 7.67285C114.79 7.3623 114.626 7.11035 114.427 6.91699C114.234 6.72363 114.008 6.58301 113.75 6.49512C113.498 6.40137 113.214 6.35449 112.898 6.35449C112.511 6.35449 112.168 6.42773 111.869 6.57422C111.571 6.71484 111.319 6.94043 111.113 7.25098C110.914 7.56152 110.762 7.96875 110.656 8.47266C110.551 8.97656 110.498 9.58887 110.498 10.3096V12.7969C110.498 13.3711 110.53 13.8779 110.595 14.3174C110.665 14.7568 110.768 15.1377 110.903 15.46C111.037 15.7764 111.201 16.0371 111.395 16.2422C111.588 16.4473 111.811 16.5996 112.063 16.6992C112.321 16.793 112.605 16.8398 112.915 16.8398C113.314 16.8398 113.662 16.7637 113.961 16.6113C114.26 16.459 114.509 16.2217 114.708 15.8994C114.913 15.5713 115.066 15.1523 115.165 14.6426C115.265 14.127 115.315 13.5117 115.315 12.7969ZM122.751 11.8916V13.2275H118.462V11.8916H122.751ZM132.384 14.5371C132.384 15.3164 132.203 15.9785 131.839 16.5234C131.482 17.0625 130.996 17.4727 130.38 17.7539C129.771 18.0352 129.082 18.1758 128.315 18.1758C127.547 18.1758 126.856 18.0352 126.241 17.7539C125.625 17.4727 125.139 17.0625 124.782 16.5234C124.424 15.9785 124.246 15.3164 124.246 14.5371C124.246 14.0273 124.342 13.5615 124.536 13.1396C124.735 12.7119 125.013 12.3398 125.371 12.0234C125.734 11.707 126.162 11.4639 126.654 11.2939C127.152 11.1182 127.7 11.0303 128.297 11.0303C129.082 11.0303 129.783 11.1826 130.398 11.4873C131.013 11.7861 131.496 12.1992 131.848 12.7266C132.205 13.2539 132.384 13.8574 132.384 14.5371ZM130.749 14.502C130.749 14.0273 130.647 13.6084 130.442 13.2451C130.237 12.876 129.95 12.5889 129.58 12.3838C129.211 12.1787 128.784 12.0762 128.297 12.0762C127.799 12.0762 127.369 12.1787 127.005 12.3838C126.648 12.5889 126.37 12.876 126.17 13.2451C125.971 13.6084 125.871 14.0273 125.871 14.502C125.871 14.9941 125.968 15.416 126.162 15.7676C126.361 16.1133 126.642 16.3799 127.005 16.5674C127.374 16.749 127.811 16.8398 128.315 16.8398C128.819 16.8398 129.252 16.749 129.616 16.5674C129.979 16.3799 130.257 16.1133 130.451 15.7676C130.65 15.416 130.749 14.9941 130.749 14.502ZM132.085 8.53418C132.085 9.15527 131.921 9.71484 131.593 10.2129C131.265 10.7109 130.817 11.1035 130.248 11.3906C129.68 11.6777 129.036 11.8213 128.315 11.8213C127.582 11.8213 126.929 11.6777 126.355 11.3906C125.787 11.1035 125.341 10.7109 125.019 10.2129C124.697 9.71484 124.536 9.15527 124.536 8.53418C124.536 7.79004 124.697 7.15723 125.019 6.63574C125.347 6.11426 125.795 5.71582 126.364 5.44043C126.932 5.16504 127.579 5.02734 128.306 5.02734C129.038 5.02734 129.689 5.16504 130.257 5.44043C130.826 5.71582 131.271 6.11426 131.593 6.63574C131.921 7.15723 132.085 7.79004 132.085 8.53418ZM130.459 8.56055C130.459 8.13281 130.369 7.75488 130.187 7.42676C130.005 7.09863 129.753 6.84082 129.431 6.65332C129.109 6.45996 128.734 6.36328 128.306 6.36328C127.878 6.36328 127.503 6.4541 127.181 6.63574C126.865 6.81152 126.616 7.06348 126.434 7.3916C126.258 7.71973 126.17 8.10938 126.17 8.56055C126.17 9 126.258 9.38379 126.434 9.71191C126.616 10.04 126.868 10.2949 127.19 10.4766C127.512 10.6582 127.887 10.749 128.315 10.749C128.743 10.749 129.115 10.6582 129.431 10.4766C129.753 10.2949 130.005 10.04 130.187 9.71191C130.369 9.38379 130.459 9 130.459 8.56055ZM136.647 11.9092L135.347 11.5752L135.988 5.20312H142.554V6.70605H137.368L136.981 10.1865C137.216 10.0518 137.512 9.92578 137.869 9.80859C138.232 9.69141 138.648 9.63281 139.117 9.63281C139.709 9.63281 140.239 9.73535 140.708 9.94043C141.177 10.1396 141.575 10.4268 141.903 10.8018C142.237 11.1768 142.492 11.6279 142.668 12.1553C142.844 12.6826 142.932 13.2715 142.932 13.9219C142.932 14.5371 142.847 15.1025 142.677 15.6182C142.513 16.1338 142.264 16.585 141.93 16.9717C141.596 17.3525 141.174 17.6484 140.664 17.8594C140.16 18.0703 139.565 18.1758 138.88 18.1758C138.364 18.1758 137.875 18.1055 137.412 17.9648C136.955 17.8184 136.545 17.5986 136.182 17.3057C135.824 17.0068 135.531 16.6377 135.303 16.1982C135.08 15.7529 134.939 15.2314 134.881 14.6338H136.428C136.498 15.1143 136.639 15.5186 136.85 15.8467C137.061 16.1748 137.336 16.4238 137.676 16.5938C138.021 16.7578 138.423 16.8398 138.88 16.8398C139.267 16.8398 139.609 16.7725 139.908 16.6377C140.207 16.5029 140.459 16.3096 140.664 16.0576C140.869 15.8057 141.024 15.501 141.13 15.1436C141.241 14.7861 141.297 14.3848 141.297 13.9395C141.297 13.5352 141.241 13.1602 141.13 12.8145C141.019 12.4688 140.852 12.167 140.629 11.9092C140.412 11.6514 140.146 11.4521 139.829 11.3115C139.513 11.165 139.149 11.0918 138.739 11.0918C138.194 11.0918 137.781 11.165 137.5 11.3115C137.225 11.458 136.94 11.6572 136.647 11.9092ZM148.425 11.8916V13.2275H144.136V11.8916H148.425ZM158.059 14.5371C158.059 15.3164 157.877 15.9785 157.514 16.5234C157.156 17.0625 156.67 17.4727 156.055 17.7539C155.446 18.0352 154.757 18.1758 153.989 18.1758C153.222 18.1758 152.53 18.0352 151.915 17.7539C151.3 17.4727 150.814 17.0625 150.456 16.5234C150.099 15.9785 149.92 15.3164 149.92 14.5371C149.92 14.0273 150.017 13.5615 150.21 13.1396C150.409 12.7119 150.688 12.3398 151.045 12.0234C151.408 11.707 151.836 11.4639 152.328 11.2939C152.826 11.1182 153.374 11.0303 153.972 11.0303C154.757 11.0303 155.457 11.1826 156.072 11.4873C156.688 11.7861 157.171 12.1992 157.523 12.7266C157.88 13.2539 158.059 13.8574 158.059 14.5371ZM156.424 14.502C156.424 14.0273 156.321 13.6084 156.116 13.2451C155.911 12.876 155.624 12.5889 155.255 12.3838C154.886 12.1787 154.458 12.0762 153.972 12.0762C153.474 12.0762 153.043 12.1787 152.68 12.3838C152.322 12.5889 152.044 12.876 151.845 13.2451C151.646 13.6084 151.546 14.0273 151.546 14.502C151.546 14.9941 151.643 15.416 151.836 15.7676C152.035 16.1133 152.317 16.3799 152.68 16.5674C153.049 16.749 153.486 16.8398 153.989 16.8398C154.493 16.8398 154.927 16.749 155.29 16.5674C155.654 16.3799 155.932 16.1133 156.125 15.7676C156.324 15.416 156.424 14.9941 156.424 14.502ZM157.76 8.53418C157.76 9.15527 157.596 9.71484 157.268 10.2129C156.94 10.7109 156.491 11.1035 155.923 11.3906C155.355 11.6777 154.71 11.8213 153.989 11.8213C153.257 11.8213 152.604 11.6777 152.029 11.3906C151.461 11.1035 151.016 10.7109 150.694 10.2129C150.371 9.71484 150.21 9.15527 150.21 8.53418C150.21 7.79004 150.371 7.15723 150.694 6.63574C151.022 6.11426 151.47 5.71582 152.038 5.44043C152.607 5.16504 153.254 5.02734 153.981 5.02734C154.713 5.02734 155.363 5.16504 155.932 5.44043C156.5 5.71582 156.946 6.11426 157.268 6.63574C157.596 7.15723 157.76 7.79004 157.76 8.53418ZM156.134 8.56055C156.134 8.13281 156.043 7.75488 155.862 7.42676C155.68 7.09863 155.428 6.84082 155.106 6.65332C154.783 6.45996 154.408 6.36328 153.981 6.36328C153.553 6.36328 153.178 6.4541 152.856 6.63574C152.539 6.81152 152.29 7.06348 152.109 7.3916C151.933 7.71973 151.845 8.10938 151.845 8.56055C151.845 9 151.933 9.38379 152.109 9.71191C152.29 10.04 152.542 10.2949 152.864 10.4766C153.187 10.6582 153.562 10.749 153.989 10.749C154.417 10.749 154.789 10.6582 155.106 10.4766C155.428 10.2949 155.68 10.04 155.862 9.71191C156.043 9.38379 156.134 9 156.134 8.56055ZM162.322 11.9092L161.021 11.5752L161.663 5.20312H168.228V6.70605H163.043L162.656 10.1865C162.89 10.0518 163.186 9.92578 163.544 9.80859C163.907 9.69141 164.323 9.63281 164.792 9.63281C165.384 9.63281 165.914 9.73535 166.383 9.94043C166.851 10.1396 167.25 10.4268 167.578 10.8018C167.912 11.1768 168.167 11.6279 168.343 12.1553C168.518 12.6826 168.606 13.2715 168.606 13.9219C168.606 14.5371 168.521 15.1025 168.351 15.6182C168.187 16.1338 167.938 16.585 167.604 16.9717C167.27 17.3525 166.848 17.6484 166.339 17.8594C165.835 18.0703 165.24 18.1758 164.554 18.1758C164.039 18.1758 163.55 18.1055 163.087 17.9648C162.63 17.8184 162.22 17.5986 161.856 17.3057C161.499 17.0068 161.206 16.6377 160.977 16.1982C160.755 15.7529 160.614 15.2314 160.555 14.6338H162.102C162.173 15.1143 162.313 15.5186 162.524 15.8467C162.735 16.1748 163.011 16.4238 163.35 16.5938C163.696 16.7578 164.097 16.8398 164.554 16.8398C164.941 16.8398 165.284 16.7725 165.583 16.6377C165.882 16.5029 166.134 16.3096 166.339 16.0576C166.544 15.8057 166.699 15.501 166.804 15.1436C166.916 14.7861 166.971 14.3848 166.971 13.9395C166.971 13.5352 166.916 13.1602 166.804 12.8145C166.693 12.4688 166.526 12.167 166.304 11.9092C166.087 11.6514 165.82 11.4521 165.504 11.3115C165.187 11.165 164.824 11.0918 164.414 11.0918C163.869 11.0918 163.456 11.165 163.175 11.3115C162.899 11.458 162.615 11.6572 162.322 11.9092ZM174.1 11.8916V13.2275H169.811V11.8916H174.1ZM183.733 14.5371C183.733 15.3164 183.552 15.9785 183.188 16.5234C182.831 17.0625 182.345 17.4727 181.729 17.7539C181.12 18.0352 180.432 18.1758 179.664 18.1758C178.896 18.1758 178.205 18.0352 177.59 17.7539C176.975 17.4727 176.488 17.0625 176.131 16.5234C175.773 15.9785 175.595 15.3164 175.595 14.5371C175.595 14.0273 175.691 13.5615 175.885 13.1396C176.084 12.7119 176.362 12.3398 176.72 12.0234C177.083 11.707 177.511 11.4639 178.003 11.2939C178.501 11.1182 179.049 11.0303 179.646 11.0303C180.432 11.0303 181.132 11.1826 181.747 11.4873C182.362 11.7861 182.846 12.1992 183.197 12.7266C183.555 13.2539 183.733 13.8574 183.733 14.5371ZM182.099 14.502C182.099 14.0273 181.996 13.6084 181.791 13.2451C181.586 12.876 181.299 12.5889 180.93 12.3838C180.561 12.1787 180.133 12.0762 179.646 12.0762C179.148 12.0762 178.718 12.1787 178.354 12.3838C177.997 12.5889 177.719 12.876 177.52 13.2451C177.32 13.6084 177.221 14.0273 177.221 14.502C177.221 14.9941 177.317 15.416 177.511 15.7676C177.71 16.1133 177.991 16.3799 178.354 16.5674C178.724 16.749 179.16 16.8398 179.664 16.8398C180.168 16.8398 180.602 16.749 180.965 16.5674C181.328 16.3799 181.606 16.1133 181.8 15.7676C181.999 15.416 182.099 14.9941 182.099 14.502ZM183.435 8.53418C183.435 9.15527 183.271 9.71484 182.942 10.2129C182.614 10.7109 182.166 11.1035 181.598 11.3906C181.029 11.6777 180.385 11.8213 179.664 11.8213C178.932 11.8213 178.278 11.6777 177.704 11.3906C177.136 11.1035 176.69 10.7109 176.368 10.2129C176.046 9.71484 175.885 9.15527 175.885 8.53418C175.885 7.79004 176.046 7.15723 176.368 6.63574C176.696 6.11426 177.145 5.71582 177.713 5.44043C178.281 5.16504 178.929 5.02734 179.655 5.02734C180.388 5.02734 181.038 5.16504 181.606 5.44043C182.175 5.71582 182.62 6.11426 182.942 6.63574C183.271 7.15723 183.435 7.79004 183.435 8.53418ZM181.809 8.56055C181.809 8.13281 181.718 7.75488 181.536 7.42676C181.354 7.09863 181.103 6.84082 180.78 6.65332C180.458 6.45996 180.083 6.36328 179.655 6.36328C179.228 6.36328 178.853 6.4541 178.53 6.63574C178.214 6.81152 177.965 7.06348 177.783 7.3916C177.607 7.71973 177.52 8.10938 177.52 8.56055C177.52 9 177.607 9.38379 177.783 9.71191C177.965 10.04 178.217 10.2949 178.539 10.4766C178.861 10.6582 179.236 10.749 179.664 10.749C180.092 10.749 180.464 10.6582 180.78 10.4766C181.103 10.2949 181.354 10.04 181.536 9.71191C181.718 9.38379 181.809 9 181.809 8.56055ZM194.211 5.20312V6.11719L188.911 18H187.197L192.488 6.53906H185.562V5.20312H194.211Z" fill="black"/>
</svg>
