<svg width="25" height="24" viewBox="0 0 25 24" fill="none" xmlns="http://www.w3.org/2000/svg">
<path d="M12.5 3.75C9.6095 3.75 7.25 6.1095 7.25 9C7.25 10.8075 8.1725 12.414 9.5705 13.3597C6.89525 14.5072 5 17.16 5 20.25H6.5C6.5 16.9275 9.1775 14.25 12.5 14.25C15.8225 14.25 18.5 16.9275 18.5 20.25H20C20 17.16 18.1047 14.5065 15.4295 13.359C16.1432 12.8775 16.7279 12.2284 17.1325 11.4684C17.537 10.7085 17.7491 9.86092 17.75 9C17.75 6.1095 15.3905 3.75 12.5 3.75ZM12.5 5.25C14.5798 5.25 16.25 6.92025 16.25 9C16.25 11.0798 14.5798 12.75 12.5 12.75C10.4202 12.75 8.75 11.0798 8.75 9C8.75 6.92025 10.4202 5.25 12.5 5.25Z" fill="black"/>
</svg>
