<svg width="24" height="25" viewBox="0 0 24 25" fill="none" xmlns="http://www.w3.org/2000/svg">
<path d="M18.9996 17.7475C18.9996 18.8397 18.0269 19.8231 17.0692 20.215C14.8604 21.134 12.3388 19.752 10.572 18.4675C8.82793 17.1955 7.28468 15.6595 6.01265 13.915C4.73785 12.1454 3.38308 9.67156 4.27004 7.4575C4.65255 6.48673 5.58982 5.5 6.69618 5.5C8.30845 5.5 10.7744 9.16042 9.3777 10.555C9.00825 10.9385 8.57851 11.1985 8.76929 11.77C9.2091 12.5751 9.91991 13.2667 10.557 13.915C11.2125 14.5574 11.9 15.2739 12.7202 15.7075C13.2776 15.9301 13.5573 15.4669 13.922 15.1075C15.1772 13.8542 18.9996 15.9846 18.9996 17.7475Z" stroke="#0094FF" stroke-miterlimit="10"/>
<path d="M13 8.5C13 6.567 14.567 5 16.5 5V5C18.433 5 20 6.567 20 8.5V8.5C20 10.433 18.433 12 16.5 12H13.3333C13.1492 12 13 11.8508 13 11.6667V8.5Z" stroke="#0094FF"/>
<path d="M16.5 7V10M15 8.5L18 8.5" stroke="#0094FF" stroke-linecap="round"/>
</svg>
