<svg width="24" height="24" viewBox="0 0 24 24" fill="none" xmlns="http://www.w3.org/2000/svg">
<path d="M12 10.5C16.3392 10.5 18.9508 6.79576 19.4529 6.96485C19.4762 6.97271 19.4651 6.99999 19.4405 6.99999H4.57699C4.54964 6.99999 4.54256 6.97466 4.56991 6.9747C5.14861 6.97543 7.70711 10.5 12 10.5ZM12 10.5V11M12 20.5H16M12 20.5H8M12 20.5L12 18.5M12 13.5V16" stroke="white" stroke-linecap="round"/>
<path d="M9.5 18.5001C10 17.0001 14.5 17.5001 14.5 16.0001C14.5 15.509 14.0292 15.246 13.341 15.085M11.6046 4.00006H10.6442C10.5581 4.00006 10.4816 4.05515 10.4544 4.13682L10.0316 5.40519C10.0186 5.44428 10.0558 5.48147 10.0949 5.46844L11.3777 5.04081C11.4522 5.016 11.5052 4.94994 11.5134 4.87189L11.6046 4.00006ZM11.6046 4.00006C13.4345 2.77687 15.5538 3.78469 16.5 5.36549M10.5677 14.7501C9.19933 14.6048 8.5 14.0001 8.5 13.5001C8.5 12.0415 14.5518 12.4666 15.8749 11.1507" stroke="white" stroke-linecap="round"/>
</svg>
