<svg width="25" height="24" viewBox="0 0 25 24" fill="none" xmlns="http://www.w3.org/2000/svg">
<rect x="0.5" width="24" height="24" rx="12" fill="url(#paint0_radial_101_2434)"/>
<path d="M12.5 7.08434C14.0904 7.08434 14.3072 7.08434 14.9578 7.08434C15.5361 7.08434 15.8253 7.22892 16.0422 7.30121C16.3313 7.44578 16.5482 7.51807 16.7651 7.73494C16.9819 7.95181 17.1265 8.16868 17.1988 8.45783C17.2711 8.6747 17.3434 8.96386 17.4157 9.54217C17.4157 10.1928 17.4157 10.3373 17.4157 12C17.4157 13.6627 17.4157 13.8072 17.4157 14.4578C17.4157 15.0361 17.2711 15.3253 17.1988 15.5422C17.0542 15.8313 16.9819 16.0482 16.7651 16.2651C16.5482 16.4819 16.3313 16.6265 16.0422 16.6988C15.8253 16.7711 15.5361 16.8434 14.9578 16.9157C14.3072 16.9157 14.1627 16.9157 12.5 16.9157C10.8373 16.9157 10.6928 16.9157 10.0422 16.9157C9.46386 16.9157 9.1747 16.7711 8.95783 16.6988C8.66868 16.5542 8.45181 16.4819 8.23494 16.2651C8.01807 16.0482 7.87349 15.8313 7.80121 15.5422C7.72892 15.3253 7.65663 15.0361 7.58434 14.4578C7.58434 13.8072 7.58434 13.6627 7.58434 12C7.58434 10.3373 7.58434 10.1928 7.58434 9.54217C7.58434 8.96386 7.72892 8.6747 7.80121 8.45783C7.94578 8.16868 8.01807 7.95181 8.23494 7.73494C8.45181 7.51807 8.66868 7.37349 8.95783 7.30121C9.1747 7.22892 9.46386 7.15663 10.0422 7.08434C10.6928 7.08434 10.9096 7.08434 12.5 7.08434ZM12.5 6C10.8373 6 10.6928 6 10.0422 6C9.39157 6 8.95783 6.14458 8.59639 6.28916C8.23494 6.43374 7.87349 6.6506 7.51205 7.01205C7.1506 7.37349 7.00602 7.66265 6.78916 8.09639C6.64458 8.45783 6.57229 8.89157 6.5 9.54217C6.5 10.1928 6.5 10.4096 6.5 12C6.5 13.6627 6.5 13.8072 6.5 14.4578C6.5 15.1084 6.64458 15.5422 6.78916 15.9036C6.93374 16.2651 7.1506 16.6265 7.51205 16.988C7.87349 17.3494 8.16265 17.494 8.59639 17.7108C8.95783 17.8554 9.39157 17.9277 10.0422 18C10.6928 18 10.9096 18 12.5 18C14.0904 18 14.3072 18 14.9578 18C15.6084 18 16.0422 17.8554 16.4036 17.7108C16.7651 17.5663 17.1265 17.3494 17.488 16.988C17.8494 16.6265 17.994 16.3374 18.2108 15.9036C18.3554 15.5422 18.4277 15.1084 18.5 14.4578C18.5 13.8072 18.5 13.5904 18.5 12C18.5 10.4096 18.5 10.1928 18.5 9.54217C18.5 8.89157 18.3554 8.45783 18.2108 8.09639C18.0663 7.73494 17.8494 7.37349 17.488 7.01205C17.1265 6.6506 16.8374 6.50602 16.4036 6.28916C16.0422 6.14458 15.6084 6.07229 14.9578 6C14.3072 6 14.1627 6 12.5 6Z" fill="white"/>
<path d="M12.5 8.89157C10.7651 8.89157 9.39157 10.2651 9.39157 12C9.39157 13.7349 10.7651 15.1084 12.5 15.1084C14.2349 15.1084 15.6084 13.7349 15.6084 12C15.6084 10.2651 14.2349 8.89157 12.5 8.89157ZM12.5 14.0241C11.4157 14.0241 10.4759 13.1566 10.4759 12C10.4759 10.9157 11.3434 9.9759 12.5 9.9759C13.5843 9.9759 14.5241 10.8434 14.5241 12C14.5241 13.0843 13.5843 14.0241 12.5 14.0241Z" fill="white"/>
<path d="M15.6807 9.54217C16.08 9.54217 16.4036 9.21852 16.4036 8.81928C16.4036 8.42004 16.08 8.09639 15.6807 8.09639C15.2815 8.09639 14.9578 8.42004 14.9578 8.81928C14.9578 9.21852 15.2815 9.54217 15.6807 9.54217Z" fill="white"/>
<defs>
<radialGradient id="paint0_radial_101_2434" cx="0" cy="0" r="1" gradientUnits="userSpaceOnUse" gradientTransform="translate(24.9828 0.487501) scale(55.4231)">
<stop stop-color="#F9ED32"/>
<stop offset="0.36" stop-color="#EE2A7B"/>
<stop offset="0.44" stop-color="#D22A8A"/>
<stop offset="0.6" stop-color="#8B2AB2"/>
<stop offset="0.83" stop-color="#1B2AF0"/>
<stop offset="0.88" stop-color="#002AFF"/>
</radialGradient>
</defs>
</svg>
